<svg width="24" height="23" viewBox="0 0 24 23" fill="none" xmlns="http://www.w3.org/2000/svg">
    <path d="M4.5 2V8.879L15 19.379L21.879 12.5L11.379 2H4.5ZM3 2C3 1.60218 3.15804 1.22064 3.43934 0.93934C3.72064 0.658035 4.10218 0.5 4.5 0.5H11.379C11.7768 0.500085 12.1583 0.658176 12.4395 0.9395L22.9395 11.4395C23.2207 11.7208 23.3787 12.1023 23.3787 12.5C23.3787 12.8977 23.2207 13.2792 22.9395 13.5605L16.0605 20.4395C15.7792 20.7207 15.3977 20.8787 15 20.8787C14.6023 20.8787 14.2208 20.7207 13.9395 20.4395L3.4395 9.9395C3.15818 9.65826 3.00008 9.27679 3 8.879V2Z" fill="current"/>
    <path d="M8.25 6.5C8.05109 6.5 7.86032 6.42098 7.71967 6.28033C7.57902 6.13968 7.5 5.94891 7.5 5.75C7.5 5.55109 7.57902 5.36032 7.71967 5.21967C7.86032 5.07902 8.05109 5 8.25 5C8.44891 5 8.63968 5.07902 8.78033 5.21967C8.92098 5.36032 9 5.55109 9 5.75C9 5.94891 8.92098 6.13968 8.78033 6.28033C8.63968 6.42098 8.44891 6.5 8.25 6.5ZM8.25 8C8.84674 8 9.41903 7.76295 9.84099 7.34099C10.2629 6.91903 10.5 6.34674 10.5 5.75C10.5 5.15326 10.2629 4.58097 9.84099 4.15901C9.41903 3.73705 8.84674 3.5 8.25 3.5C7.65326 3.5 7.08097 3.73705 6.65901 4.15901C6.23705 4.58097 6 5.15326 6 5.75C6 6.34674 6.23705 6.91903 6.65901 7.34099C7.08097 7.76295 7.65326 8 8.25 8ZM1.5 9.629C1.50008 10.0268 1.65818 10.4083 1.9395 10.6895L13.125 21.875L13.0605 21.9395C12.7792 22.2207 12.3977 22.3787 12 22.3787C11.6023 22.3787 11.2208 22.2207 10.9395 21.9395L0.4395 11.4395C0.158176 11.1583 8.49561e-05 10.7768 0 10.379L0 3.5C0 3.10218 0.158035 2.72064 0.43934 2.43934C0.720644 2.15804 1.10218 2 1.5 2V9.629Z" fill="current"/>
</svg>
