<svg width="65" height="65" viewBox="0 0 65 65" fill="" xmlns="http://www.w3.org/2000/svg">
<rect width="64.9183" height="65" rx="32.4592" fill="#EAEBEF" fill-opacity="1"/>
<path d="M48.6598 36.4369C48.5753 36.4958 48.479 36.5387 48.3767 36.5631C48.2743 36.5874 48.1678 36.5928 48.0631 36.5789C47.9585 36.5651 47.8579 36.5322 47.7669 36.4821C47.676 36.4321 47.5965 36.3659 47.5331 36.2874C46.8616 35.4485 45.9874 34.7679 44.981 34.3003C43.9746 33.8327 42.8641 33.5913 41.7389 33.5954C41.5254 33.5954 41.3207 33.5166 41.1698 33.3763C41.0189 33.2361 40.9341 33.0459 40.9341 32.8476C40.9341 32.6493 41.0189 32.4591 41.1698 32.3188C41.3207 32.1786 41.5254 32.0998 41.7389 32.0998C42.3911 32.0997 43.0302 31.9296 43.5836 31.6089C44.137 31.2882 44.5825 30.8297 44.8695 30.2855C45.1566 29.7414 45.2736 29.1333 45.2074 28.5304C45.1411 27.9275 44.8943 27.354 44.4948 26.8749C44.0954 26.3958 43.5594 26.0304 42.9476 25.8203C42.3359 25.6101 41.673 25.5635 41.0342 25.6858C40.3954 25.8081 39.8064 26.0945 39.3339 26.5123C38.8615 26.9301 38.5246 27.4626 38.3616 28.0494C38.3082 28.2414 38.1749 28.4059 37.9911 28.5066C37.8072 28.6074 37.5878 28.6361 37.3811 28.5865C37.1744 28.5369 36.9974 28.4131 36.889 28.2423C36.7806 28.0714 36.7497 27.8675 36.803 27.6755C37.0053 26.9445 37.3927 26.2689 37.933 25.7052C38.4732 25.1415 39.1506 24.706 39.9087 24.4349C40.6669 24.1638 41.4838 24.065 42.2913 24.1468C43.0989 24.2285 43.8737 24.4885 44.5512 24.9049C45.2287 25.3213 45.7893 25.8822 46.1862 26.5408C46.5831 27.1994 46.8049 27.9366 46.833 28.6909C46.8611 29.4453 46.6948 30.195 46.3478 30.8775C46.0009 31.56 45.4834 32.1555 44.8385 32.6145C46.4255 33.1648 47.8081 34.1284 48.8207 35.39C48.8842 35.4686 48.9303 35.558 48.9565 35.6531C48.9827 35.7482 48.9886 35.8472 48.9736 35.9444C48.9587 36.0416 48.9233 36.1352 48.8694 36.2197C48.8156 36.3042 48.7443 36.378 48.6598 36.4369ZM41.362 44.4381C41.4149 44.5231 41.4493 44.617 41.4632 44.7144C41.4771 44.8117 41.4703 44.9107 41.443 45.0056C41.4157 45.1005 41.3686 45.1895 41.3043 45.2675C41.24 45.3454 41.1598 45.4109 41.0682 45.46C40.9462 45.5265 40.8073 45.5613 40.6659 45.561C40.5245 45.5611 40.3856 45.5266 40.2632 45.4609C40.1408 45.3953 40.0391 45.3008 39.9684 45.1871C39.2689 44.0858 38.2724 43.1731 37.0772 42.5391C35.8821 41.905 34.5297 41.5715 33.1534 41.5715C31.7772 41.5715 30.4248 41.905 29.2297 42.5391C28.0345 43.1731 27.038 44.0858 26.3385 45.1871C26.2882 45.2765 26.2189 45.3554 26.1349 45.4193C26.0509 45.4832 25.9539 45.5306 25.8496 45.5587C25.7454 45.5868 25.6361 45.595 25.5284 45.5828C25.4206 45.5706 25.3166 45.5384 25.2227 45.4879C25.1287 45.4374 25.0467 45.3698 24.9816 45.2891C24.9165 45.2084 24.8696 45.1163 24.8438 45.0184C24.8179 44.9204 24.8137 44.8186 24.8313 44.7191C24.8489 44.6196 24.888 44.5244 24.9463 44.4393C26.0424 42.6894 27.7586 41.3475 29.8016 40.6431C28.6856 39.9698 27.8338 38.9794 27.3732 37.8194C26.9125 36.6595 26.8678 35.3923 27.2457 34.2068C27.6235 33.0213 28.4037 31.9811 29.4698 31.2414C30.536 30.5016 31.8309 30.1019 33.1615 30.1019C34.4921 30.1019 35.787 30.5016 36.8532 31.2414C37.9193 31.9811 38.6995 33.0213 39.0773 34.2068C39.4552 35.3923 39.4104 36.6595 38.9498 37.8194C38.4892 38.9794 37.6374 39.9698 36.5214 40.6431C38.5587 41.3499 40.2693 42.691 41.362 44.4381ZM33.1548 40.0761C34.0567 40.0761 34.9384 39.8276 35.6884 39.3619C36.4383 38.8963 37.0228 38.2345 37.368 37.4603C37.7131 36.686 37.8034 35.834 37.6275 35.012C37.4515 34.19 37.0172 33.435 36.3794 32.8424C35.7416 32.2498 34.9291 31.8462 34.0445 31.6827C33.1598 31.5192 32.2429 31.6031 31.4096 31.9239C30.5764 32.2446 29.8641 32.7877 29.363 33.4845C28.862 34.1814 28.5945 35.0006 28.5945 35.8387C28.5945 36.9625 29.075 38.0403 29.9302 38.835C30.7854 39.6296 31.9453 40.0761 33.1548 40.0761ZM25.3755 32.8476C25.3755 32.6493 25.2907 32.4591 25.1398 32.3188C24.9888 32.1786 24.7841 32.0998 24.5707 32.0998C23.9186 32.0996 23.2796 31.9295 22.7262 31.6088C22.1729 31.2882 21.7275 30.8297 21.4404 30.2856C21.1534 29.7415 21.0363 29.1335 21.1025 28.5307C21.1687 27.9278 21.4154 27.3543 21.8148 26.8753C22.2141 26.3962 22.75 26.0308 23.3616 25.8205C23.9732 25.6102 24.636 25.5635 25.2748 25.6856C25.9135 25.8078 26.5026 26.0939 26.9751 26.5115C27.4477 26.9291 27.7847 27.4615 27.948 28.0481C27.9744 28.1432 28.0207 28.2325 28.0843 28.311C28.1479 28.3895 28.2275 28.4555 28.3185 28.5054C28.4096 28.5553 28.5103 28.588 28.6149 28.6017C28.7196 28.6154 28.8261 28.6098 28.9285 28.5853C29.0308 28.5607 29.1269 28.5177 29.2114 28.4586C29.2958 28.3996 29.3669 28.3256 29.4206 28.241C29.4743 28.1564 29.5095 28.0628 29.5242 27.9656C29.539 27.8683 29.533 27.7693 29.5066 27.6742C29.3043 26.9432 28.9169 26.2677 28.3766 25.704C27.8364 25.1403 27.159 24.7048 26.4008 24.4337C25.6427 24.1626 24.8258 24.0638 24.0183 24.1455C23.2107 24.2273 22.4359 24.4872 21.7584 24.9037C21.0808 25.3201 20.5203 25.881 20.1233 26.5396C19.7264 27.1981 19.5047 27.9353 19.4766 28.6897C19.4484 29.444 19.6148 30.1937 19.9617 30.8762C20.3087 31.5587 20.8262 32.1543 21.471 32.6133C19.884 33.1639 18.5013 34.128 17.4888 35.39C17.4254 35.4686 17.3793 35.558 17.3531 35.6531C17.3268 35.7482 17.321 35.8472 17.336 35.9444C17.3509 36.0416 17.3863 36.1352 17.4402 36.2197C17.494 36.3042 17.5652 36.378 17.6498 36.4369C17.7343 36.4958 17.8305 36.5387 17.9329 36.5631C18.0353 36.5874 18.1418 36.5928 18.2464 36.5789C18.3511 36.5651 18.4517 36.5322 18.5427 36.4821C18.6336 36.4321 18.713 36.3659 18.7764 36.2874C19.448 35.4485 20.3222 34.7679 21.3286 34.3003C22.335 33.8327 23.4455 33.5913 24.5707 33.5954C24.7841 33.5954 24.9888 33.5166 25.1398 33.3763C25.2907 33.2361 25.3755 33.0459 25.3755 32.8476Z" fill="#555555"/>
</svg>
