<svg width="24" height="24" viewBox="0 0 24 24" fill="none" xmlns="http://www.w3.org/2000/svg">
<path d="M4.5 3V9.879L15 20.379L21.879 13.5L11.379 3H4.5ZM3 3C3 2.60218 3.15804 2.22064 3.43934 1.93934C3.72064 1.65804 4.10218 1.5 4.5 1.5H11.379C11.7768 1.50008 12.1583 1.65818 12.4395 1.9395L22.9395 12.4395C23.2207 12.7208 23.3787 13.1023 23.3787 13.5C23.3787 13.8977 23.2207 14.2792 22.9395 14.5605L16.0605 21.4395C15.7792 21.7207 15.3977 21.8787 15 21.8787C14.6023 21.8787 14.2208 21.7207 13.9395 21.4395L3.4395 10.9395C3.15818 10.6583 3.00008 10.2768 3 9.879V3Z" fill="#555555"/>
<path d="M8.25 7.5C8.05109 7.5 7.86032 7.42098 7.71967 7.28033C7.57902 7.13968 7.5 6.94891 7.5 6.75C7.5 6.55109 7.57902 6.36032 7.71967 6.21967C7.86032 6.07902 8.05109 6 8.25 6C8.44891 6 8.63968 6.07902 8.78033 6.21967C8.92098 6.36032 9 6.55109 9 6.75C9 6.94891 8.92098 7.13968 8.78033 7.28033C8.63968 7.42098 8.44891 7.5 8.25 7.5ZM8.25 9C8.84674 9 9.41903 8.76295 9.84099 8.34099C10.2629 7.91903 10.5 7.34674 10.5 6.75C10.5 6.15326 10.2629 5.58097 9.84099 5.15901C9.41903 4.73705 8.84674 4.5 8.25 4.5C7.65326 4.5 7.08097 4.73705 6.65901 5.15901C6.23705 5.58097 6 6.15326 6 6.75C6 7.34674 6.23705 7.91903 6.65901 8.34099C7.08097 8.76295 7.65326 9 8.25 9ZM1.5 10.629C1.50008 11.0268 1.65818 11.4083 1.9395 11.6895L13.125 22.875L13.0605 22.9395C12.7792 23.2207 12.3977 23.3787 12 23.3787C11.6023 23.3787 11.2208 23.2207 10.9395 22.9395L0.4395 12.4395C0.158176 12.1583 8.49561e-05 11.7768 0 11.379L0 4.5C0 4.10218 0.158035 3.72064 0.43934 3.43934C0.720644 3.15804 1.10218 3 1.5 3V10.629Z" fill="#555555"/>
</svg>
