<svg width="65" height="65" viewBox="0 0 65 65" fill="none" xmlns="http://www.w3.org/2000/svg">
<rect width="64.9183" height="65" rx="32.4592" fill="#EAEBEF" fill-opacity="1"/>
<path d="M37.6475 26.4706L36.8052 26.3259C36.7849 26.4522 36.7914 26.5816 36.8244 26.7051C36.8573 26.8286 36.9159 26.9432 36.9961 27.0409C37.0762 27.1386 37.176 27.2172 37.2885 27.2711C37.401 27.3249 37.5235 27.3529 37.6475 27.3529V26.4706ZM18.8542 26.4706V25.5882C18.6277 25.5882 18.4104 25.6812 18.2502 25.8467C18.09 26.0121 18 26.2366 18 26.4706H18.8542ZM22.2712 45H41.6795V43.2353H22.2712V45ZM43.7297 25.5882H37.6475V27.3529H43.7297V25.5882ZM38.4898 26.6153L39.8668 18.0829L38.1822 17.7918L36.8052 26.3259L38.4898 26.6153ZM37.34 15H36.9761V16.7647H37.34V15ZM31.9993 17.7512L27.7007 24.4094L29.1222 25.3888L33.419 18.7288L31.9993 17.7512ZM25.5686 25.5882H18.8542V27.3529H25.5686V25.5882ZM18 26.4706V40.5882H19.7085V26.4706H18ZM45.8687 41.4529L47.9189 30.8647L46.2446 30.5188L44.1944 41.1071L45.8687 41.4529ZM27.7007 24.4094C27.4667 24.772 27.1497 25.0693 26.7777 25.275C26.4058 25.4806 25.9904 25.5882 25.5686 25.5882V27.3529C26.2716 27.353 26.9639 27.1737 27.5838 26.8311C28.2037 26.4884 28.7321 25.993 29.1222 25.3888L27.7007 24.4094ZM39.8668 18.0829C39.9281 17.7038 39.9087 17.3154 39.8099 16.9447C39.7112 16.5741 39.5355 16.2301 39.295 15.9367C39.0545 15.6433 38.7551 15.4075 38.4174 15.2458C38.0798 15.084 37.7121 15.0001 37.34 15V16.7647C37.4641 16.7645 37.5868 16.7923 37.6995 16.846C37.8122 16.8998 37.9122 16.9783 37.9925 17.0761C38.0729 17.1738 38.1316 17.2885 38.1647 17.4121C38.1977 17.5357 38.2043 17.6653 38.184 17.7918L39.8668 18.0829ZM43.7297 27.3529C44.1088 27.3529 44.4833 27.4398 44.826 27.6073C45.1687 27.7748 45.4711 28.0188 45.7115 28.3216C45.9519 28.6244 46.1243 28.9786 46.2162 29.3586C46.3081 29.7385 46.3189 30.1348 46.2446 30.5188L47.9189 30.8647C48.0427 30.2249 48.0258 29.5647 47.8729 28.9317C47.7199 28.2986 47.4329 27.7085 47.0326 27.2038C46.6322 26.6991 46.1285 26.2925 45.5576 26.0131C44.9868 25.7337 44.3631 25.5886 43.7314 25.5882L43.7297 27.3529ZM41.6795 45C42.6671 45.0002 43.6243 44.6469 44.3881 44.0001C45.1519 43.3534 45.6751 42.4533 45.8687 41.4529L44.1944 41.1071C44.0782 41.7075 43.7641 42.2478 43.3055 42.6358C42.8469 43.0239 42.2723 43.2357 41.6795 43.2353V45ZM36.9744 15C35.9896 14.9998 35.0201 15.2509 34.1519 15.7308C33.2837 16.2108 32.5437 16.9048 31.9976 17.7512L33.419 18.7288C33.8091 18.1246 34.3375 17.6292 34.9574 17.2866C35.5774 16.944 36.2696 16.7647 36.9726 16.7647L36.9744 15ZM22.2712 43.2353C21.5915 43.2353 20.9397 42.9564 20.4591 42.46C19.9785 41.9636 19.7085 41.2903 19.7085 40.5882H18C18 41.1676 18.1105 41.7413 18.3251 42.2765C18.5398 42.8118 18.8544 43.2982 19.251 43.7078C19.6476 44.1175 20.1185 44.4425 20.6367 44.6642C21.1549 44.8859 21.7103 45 22.2712 45V43.2353Z" fill="#555555"/>
<path d="M25.6882 26.4707V44.1178" stroke="#555555"/>
</svg>
