<svg width="31" height="31" viewBox="0 0 31 31" fill="none" xmlns="http://www.w3.org/2000/svg">
<path d="M22.0171 7.6582H26.8035M3.8291 7.6582H18.1881M22.0171 22.9744H26.8035M3.8291 22.9744H18.1881M12.4445 15.3163H26.8035M3.8291 15.3163H8.61543" stroke="#555555" stroke-width="1.5" stroke-linecap="round" stroke-linejoin="round"/>
<path d="M20.103 9.57271C21.1604 9.57271 22.0175 8.71555 22.0175 7.65818C22.0175 6.60082 21.1604 5.74365 20.103 5.74365C19.0456 5.74365 18.1885 6.60082 18.1885 7.65818C18.1885 8.71555 19.0456 9.57271 20.103 9.57271Z" stroke="#555555" stroke-width="1.5" stroke-linecap="round" stroke-linejoin="round"/>
<path d="M10.5298 17.2309C11.5871 17.2309 12.4443 16.3738 12.4443 15.3164C12.4443 14.259 11.5871 13.4019 10.5298 13.4019C9.4724 13.4019 8.61523 14.259 8.61523 15.3164C8.61523 16.3738 9.4724 17.2309 10.5298 17.2309Z" stroke="#555555" stroke-width="1.5" stroke-linecap="round" stroke-linejoin="round"/>
<path d="M20.103 24.8891C21.1604 24.8891 22.0175 24.032 22.0175 22.9746C22.0175 21.9172 21.1604 21.0601 20.103 21.0601C19.0456 21.0601 18.1885 21.9172 18.1885 22.9746C18.1885 24.032 19.0456 24.8891 20.103 24.8891Z" stroke="#555555" stroke-width="1.5" stroke-linecap="round" stroke-linejoin="round"/>
</svg>
