<svg
  width="31"
  height="32" 
  viewBox="0 0 31 32" 
  fill="none"
  xmlns="http://www.w3.org/2000/svg">
<path d="M22.2481 8.50439H27.0344M4.06006 8.50439H18.419M22.2481 23.8206H27.0344M4.06006 23.8206H18.419M12.6754 16.1625H27.0344M4.06006 16.1625H8.84638" stroke="#31BB6B" stroke-width="1.5" stroke-linecap="round" stroke-linejoin="round"/>
<path d="M20.3335 10.4189C21.3908 10.4189 22.248 9.56174 22.248 8.50437C22.248 7.44701 21.3908 6.58984 20.3335 6.58984C19.2761 6.58984 18.4189 7.44701 18.4189 8.50437C18.4189 9.56174 19.2761 10.4189 20.3335 10.4189Z" stroke="#31BB6B" stroke-width="1.5" stroke-linecap="round" stroke-linejoin="round"/>
<path d="M10.761 18.0771C11.8183 18.0771 12.6755 17.2199 12.6755 16.1626C12.6755 15.1052 11.8183 14.248 10.761 14.248C9.7036 14.248 8.84644 15.1052 8.84644 16.1626C8.84644 17.2199 9.7036 18.0771 10.761 18.0771Z" stroke="#31BB6B" stroke-width="1.5" stroke-linecap="round" stroke-linejoin="round"/>
<path d="M20.3335 25.7353C21.3908 25.7353 22.248 24.8781 22.248 23.8208C22.248 22.7634 21.3908 21.9062 20.3335 21.9062C19.2761 21.9062 18.4189 22.7634 18.4189 23.8208C18.4189 24.8781 19.2761 25.7353 20.3335 25.7353Z" stroke="#31BB6B" stroke-width="1.5" stroke-linecap="round" stroke-linejoin="round"/>
</svg>
