<svg
  width="36" 
  height="27" 
  viewBox="0 0 36 27" 
  fill="none" 
  xmlns="http://www.w3.org/2000/svg">
<g clipPath="url(#clip0_5195_682)">
<path d="M6.20947 14.7637C6.01056 14.7637 5.81979 14.8427 5.67914 14.9833C5.53849 15.124 5.45947 15.3148 5.45947 15.5137C5.45947 15.7126 5.53849 15.9033 5.67914 16.044C5.81979 16.1847 6.01056 16.2637 6.20947 16.2637H6.70947C6.90839 16.2637 7.09915 16.1847 7.2398 16.044C7.38046 15.9033 7.45947 15.7126 7.45947 15.5137C7.45947 15.3148 7.38046 15.124 7.2398 14.9833C7.09915 14.8427 6.90839 14.7637 6.70947 14.7637H6.20947ZM5.45947 12.0137C5.45947 11.8148 5.53849 11.624 5.67914 11.4833C5.81979 11.3427 6.01056 11.2637 6.20947 11.2637H6.70947C6.90839 11.2637 7.09915 11.3427 7.2398 11.4833C7.38046 11.624 7.45947 11.8148 7.45947 12.0137C7.45947 12.2126 7.38046 12.4033 7.2398 12.544C7.09915 12.6847 6.90839 12.7637 6.70947 12.7637H6.20947C6.01056 12.7637 5.81979 12.6847 5.67914 12.544C5.53849 12.4033 5.45947 12.2126 5.45947 12.0137ZM6.20947 7.76367C6.01056 7.76367 5.81979 7.84269 5.67914 7.98334C5.53849 8.12399 5.45947 8.31476 5.45947 8.51367C5.45947 8.71258 5.53849 8.90335 5.67914 9.044C5.81979 9.18465 6.01056 9.26367 6.20947 9.26367H6.70947C6.90839 9.26367 7.09915 9.18465 7.2398 9.044C7.38046 8.90335 7.45947 8.71258 7.45947 8.51367C7.45947 8.31476 7.38046 8.12399 7.2398 7.98334C7.09915 7.84269 6.90839 7.76367 6.70947 7.76367H6.20947ZM8.95947 15.5137C8.95947 15.3148 9.03849 15.124 9.17914 14.9833C9.3198 14.8427 9.51056 14.7637 9.70947 14.7637H10.2095C10.4084 14.7637 10.5992 14.8427 10.7398 14.9833C10.8805 15.124 10.9595 15.3148 10.9595 15.5137C10.9595 15.7126 10.8805 15.9033 10.7398 16.044C10.5992 16.1847 10.4084 16.2637 10.2095 16.2637H9.70947C9.51056 16.2637 9.3198 16.1847 9.17914 16.044C9.03849 15.9033 8.95947 15.7126 8.95947 15.5137ZM9.70947 11.2637C9.51056 11.2637 9.3198 11.3427 9.17914 11.4833C9.03849 11.624 8.95947 11.8148 8.95947 12.0137C8.95947 12.2126 9.03849 12.4033 9.17914 12.544C9.3198 12.6847 9.51056 12.7637 9.70947 12.7637H10.2095C10.4084 12.7637 10.5992 12.6847 10.7398 12.544C10.8805 12.4033 10.9595 12.2126 10.9595 12.0137C10.9595 11.8148 10.8805 11.624 10.7398 11.4833C10.5992 11.3427 10.4084 11.2637 10.2095 11.2637H9.70947ZM8.95947 8.51367C8.95947 8.31476 9.03849 8.12399 9.17914 7.98334C9.3198 7.84269 9.51056 7.76367 9.70947 7.76367H10.2095C10.4084 7.76367 10.5992 7.84269 10.7398 7.98334C10.8805 8.12399 10.9595 8.31476 10.9595 8.51367C10.9595 8.71258 10.8805 8.90335 10.7398 9.044C10.5992 9.18465 10.4084 9.26367 10.2095 9.26367H9.70947C9.51056 9.26367 9.3198 9.18465 9.17914 9.044C9.03849 8.90335 8.95947 8.71258 8.95947 8.51367ZM13.2095 14.7637C13.0106 14.7637 12.8198 14.8427 12.6791 14.9833C12.5385 15.124 12.4595 15.3148 12.4595 15.5137C12.4595 15.7126 12.5385 15.9033 12.6791 16.044C12.8198 16.1847 13.0106 16.2637 13.2095 16.2637H13.7095C13.9084 16.2637 14.0991 16.1847 14.2398 16.044C14.3805 15.9033 14.4595 15.7126 14.4595 15.5137C14.4595 15.3148 14.3805 15.124 14.2398 14.9833C14.0991 14.8427 13.9084 14.7637 13.7095 14.7637H13.2095ZM12.4595 12.0137C12.4595 11.8148 12.5385 11.624 12.6791 11.4833C12.8198 11.3427 13.0106 11.2637 13.2095 11.2637H13.7095C13.9084 11.2637 14.0991 11.3427 14.2398 11.4833C14.3805 11.624 14.4595 11.8148 14.4595 12.0137C14.4595 12.2126 14.3805 12.4033 14.2398 12.544C14.0991 12.6847 13.9084 12.7637 13.7095 12.7637H13.2095C13.0106 12.7637 12.8198 12.6847 12.6791 12.544C12.5385 12.4033 12.4595 12.2126 12.4595 12.0137ZM13.2095 7.76367C13.0106 7.76367 12.8198 7.84269 12.6791 7.98334C12.5385 8.12399 12.4595 8.31476 12.4595 8.51367C12.4595 8.71258 12.5385 8.90335 12.6791 9.044C12.8198 9.18465 13.0106 9.26367 13.2095 9.26367H13.7095C13.9084 9.26367 14.0991 9.18465 14.2398 9.044C14.3805 8.90335 14.4595 8.71258 14.4595 8.51367C14.4595 8.31476 14.3805 8.12399 14.2398 7.98334C14.0991 7.84269 13.9084 7.76367 13.7095 7.76367H13.2095Z" fill="white"/>
<path d="M1.95947 22.7637V5.76367C1.95947 5.23324 2.17019 4.72453 2.54526 4.34946C2.92033 3.97439 3.42904 3.76367 3.95947 3.76367H15.9595C16.4899 3.76367 16.9986 3.97439 17.3737 4.34946C17.7488 4.72453 17.9595 5.23324 17.9595 5.76367V22.7637C17.9595 22.9367 17.9375 23.1037 17.8965 23.2637H19.9595C20.0921 23.2637 20.2193 23.211 20.313 23.1172C20.4068 23.0235 20.4595 22.8963 20.4595 22.7637V14.7637C20.4595 14.686 20.4414 14.6095 20.4067 14.5401C20.372 14.4706 20.3216 14.4102 20.2595 14.3637L19.7595 13.9887C19.6003 13.8693 19.4951 13.6917 19.467 13.4947C19.4389 13.2978 19.4901 13.0978 19.6095 12.9387C19.7288 12.7795 19.9065 12.6743 20.1034 12.6462C20.3003 12.6181 20.5003 12.6693 20.6595 12.7887L21.1595 13.1637C21.6635 13.5417 21.9595 14.1337 21.9595 14.7637V22.7637C21.9595 23.2941 21.7488 23.8028 21.3737 24.1779C20.9986 24.553 20.4899 24.7637 19.9595 24.7637H16.3975C16.3416 24.7637 16.286 24.7577 16.2315 24.7457C16.1425 24.7577 16.0515 24.7637 15.9595 24.7637H12.2095C12.0106 24.7637 11.8198 24.6847 11.6791 24.544C11.5385 24.4034 11.4595 24.2126 11.4595 24.0137V21.7637H8.45947V24.0137C8.45947 24.2126 8.38045 24.4034 8.2398 24.544C8.09915 24.6847 7.90838 24.7637 7.70947 24.7637H3.95947C3.42904 24.7637 2.92033 24.553 2.54526 24.1779C2.17019 23.8028 1.95947 23.2941 1.95947 22.7637ZM3.95947 23.2637H6.95947V21.0137C6.95947 20.8148 7.03849 20.624 7.17914 20.4833C7.31979 20.3427 7.51056 20.2637 7.70947 20.2637H12.2095C12.4084 20.2637 12.5991 20.3427 12.7398 20.4833C12.8805 20.624 12.9595 20.8148 12.9595 21.0137V23.2637H15.9595C16.0921 23.2637 16.2193 23.211 16.313 23.1172C16.4068 23.0235 16.4595 22.8963 16.4595 22.7637V5.76367C16.4595 5.63106 16.4068 5.50389 16.313 5.41012C16.2193 5.31635 16.0921 5.26367 15.9595 5.26367H3.95947C3.82686 5.26367 3.69969 5.31635 3.60592 5.41012C3.51215 5.50389 3.45947 5.63106 3.45947 5.76367V22.7637C3.45947 22.8963 3.51215 23.0235 3.60592 23.1172C3.69969 23.211 3.82686 23.2637 3.95947 23.2637Z" fill="white"/>
</g>
<defs>
<clipPath id="clip0_5195_682">
<rect width="35.8406" height="26.4727" fill="white"/>
</clipPath>
</defs>
</svg>