<svg width="50" height="51" viewBox="0 0 50 51" fill="none" xmlns="http://www.w3.org/2000/svg">
<path d="M23 8H28M4 8H19M23 24H28M4 24H19M13 16H28M4 16H9" stroke="#31BB6B" stroke-width="1.5" stroke-linecap="round" stroke-linejoin="round"/>
<path d="M21 10C22.1046 10 23 9.10457 23 8C23 6.89543 22.1046 6 21 6C19.8954 6 19 6.89543 19 8C19 9.10457 19.8954 10 21 10Z" stroke="#31BB6B" stroke-width="1.5" stroke-linecap="round" stroke-linejoin="round"/>
<path d="M11 18C12.1046 18 13 17.1046 13 16C13 14.8954 12.1046 14 11 14C9.89543 14 9 14.8954 9 16C9 17.1046 9.89543 18 11 18Z" stroke="#31BB6B" stroke-width="1.5" stroke-linecap="round" stroke-linejoin="round"/>
<path d="M21 26C22.1046 26 23 25.1046 23 24C23 22.8954 22.1046 22 21 22C19.8954 22 19 22.8954 19 24C19 25.1046 19.8954 26 21 26Z" stroke="#31BB6B" stroke-width="1.5" stroke-linecap="round" stroke-linejoin="round"/>
</svg>
