<svg width="50" height="51" viewBox="0 0 50 51" fill="none" xmlns="http://www.w3.org/2000/svg">
<path d="M25 24.2C23.9391 24.2 22.9217 23.7786 22.1716 23.0284C21.4214 22.2783 21 21.2609 21 20.2C21 19.1391 21.4214 18.1217 22.1716 17.3716C22.9217 16.6214 23.9391 16.2 25 16.2C26.0609 16.2 27.0783 16.6214 27.8284 17.3716C28.5786 18.1217 29 19.1391 29 20.2C29 21.2609 28.5786 22.2783 27.8284 23.0284C27.0783 23.7786 26.0609 24.2 25 24.2ZM25 17.8C23.672 17.8 22.6 18.872 22.6 20.2C22.6 21.528 23.672 22.6 25 22.6C26.328 22.6 27.4 21.528 27.4 20.2C27.4 18.872 26.328 17.8 25 17.8Z" fill="white"/>
<path d="M34.6 30.6C34.152 30.6 33.8 30.248 33.8 29.8C33.8 29.352 34.152 29 34.6 29C35.048 29 35.4 28.648 35.4 28.2C35.4 27.1391 34.9786 26.1217 34.2284 25.3716C33.4783 24.6214 32.4609 24.2 31.4 24.2H29.8C29.352 24.2 29 23.848 29 23.4C29 22.952 29.352 22.6 29.8 22.6C31.128 22.6 32.2 21.528 32.2 20.2C32.2 18.872 31.128 17.8 29.8 17.8C29.352 17.8 29 17.448 29 17C29 16.552 29.352 16.2 29.8 16.2C30.8609 16.2 31.8783 16.6214 32.6284 17.3716C33.3786 18.1217 33.8 19.1391 33.8 20.2C33.8 21.192 33.448 22.088 32.84 22.792C35.224 23.432 37 25.608 37 28.2C37 29.528 35.928 30.6 34.6 30.6ZM15.4 30.6C14.072 30.6 13 29.528 13 28.2C13 25.608 14.76 23.432 17.16 22.792C16.568 22.088 16.2 21.192 16.2 20.2C16.2 19.1391 16.6214 18.1217 17.3716 17.3716C18.1217 16.6214 19.1391 16.2 20.2 16.2C20.648 16.2 21 16.552 21 17C21 17.448 20.648 17.8 20.2 17.8C18.872 17.8 17.8 18.872 17.8 20.2C17.8 21.528 18.872 22.6 20.2 22.6C20.648 22.6 21 22.952 21 23.4C21 23.848 20.648 24.2 20.2 24.2H18.6C17.5391 24.2 16.5217 24.6214 15.7716 25.3716C15.0214 26.1217 14.6 27.1391 14.6 28.2C14.6 28.648 14.952 29 15.4 29C15.848 29 16.2 29.352 16.2 29.8C16.2 30.248 15.848 30.6 15.4 30.6ZM29.8 35.4H20.2C18.872 35.4 17.8 34.328 17.8 33V31.4C17.8 28.312 20.312 25.8 23.4 25.8H26.6C29.688 25.8 32.2 28.312 32.2 31.4V33C32.2 34.328 31.128 35.4 29.8 35.4ZM23.4 27.4C22.3391 27.4 21.3217 27.8214 20.5716 28.5716C19.8214 29.3217 19.4 30.3391 19.4 31.4V33C19.4 33.448 19.752 33.8 20.2 33.8H29.8C30.248 33.8 30.6 33.448 30.6 33V31.4C30.6 30.3391 30.1786 29.3217 29.4284 28.5716C28.6783 27.8214 27.6609 27.4 26.6 27.4H23.4Z" fill="white"/>
</svg>
