<svg width="50" height="51" viewBox="0 0 50 51" fill="none" xmlns="http://www.w3.org/2000/svg">
<path d="M21.4884 20.8325C21.0241 20.5074 20.6761 20.0423 20.4951 19.5052C20.3141 18.9681 20.3096 18.3873 20.4824 17.8475C20.6552 17.3077 20.9961 16.8373 21.4553 16.5052C21.9145 16.173 22.468 15.9965 23.0347 16.0014C23.6015 16.0063 24.1518 16.1923 24.6052 16.5324C25.0586 16.8724 25.3913 17.3486 25.5548 17.8913C25.7182 18.434 25.7037 19.0147 25.5135 19.5486C25.3232 20.0825 24.9671 20.5415 24.4973 20.8585M16.4092 26.8921C16.7501 26.4394 17.227 26.1076 17.77 25.9453C18.313 25.7829 18.8937 25.7986 19.4272 25.9899C19.9607 26.1812 20.419 26.5382 20.7351 27.0087C21.0512 27.4791 21.2084 28.0383 21.184 28.6045C21.1595 29.1708 20.9545 29.7143 20.599 30.1557C20.2435 30.5971 19.7561 30.9132 19.2081 31.0577C18.66 31.2023 18.0801 31.1678 17.5532 30.9592C17.0262 30.7506 16.5798 30.3789 16.2792 29.8984" stroke="#808080" stroke-linecap="round" stroke-linejoin="round"/>
<path d="M21.4884 20.8325C21.6671 21.1651 21.6325 21.7317 20.7896 21.8324H15.5626V26.2957C15.5471 26.4019 15.5613 26.5102 15.6037 26.6088C15.6461 26.7073 15.715 26.7922 15.8027 26.8539C15.8904 26.9156 15.9936 26.9518 16.1006 26.9585C16.2077 26.9651 16.3145 26.942 16.4092 26.8916M16.2797 29.8978C16.1918 29.8569 16.0941 29.8416 15.9979 29.8537C15.9016 29.8659 15.8108 29.905 15.7359 29.9665C15.6609 30.0281 15.6048 30.1096 15.5742 30.2016C15.5435 30.2936 15.5395 30.3924 15.5626 30.4866V34.782H26.6667" stroke="#808080" stroke-linecap="round" stroke-linejoin="round"/>
<path d="M22.1866 31.662L23.5689 34.067C25.2308 33.0845 26.9283 34.0714 26.9283 35.9992H29.6892C29.6892 34.0714 31.2265 33.1749 33.0562 34.0714L34.4391 31.661C32.7334 30.6822 32.7323 28.7695 34.4391 27.788L33.0562 25.3847C31.4123 26.3607 29.6892 25.3868 29.6892 23.4498H26.9283C26.9283 25.3868 25.2313 26.3607 23.5678 25.3868L22.1866 27.7447C23.9351 28.7685 23.8333 30.7157 22.1866 31.662Z" stroke="#808080" stroke-linecap="round" stroke-linejoin="round"/>
<path d="M28.3128 31.9822C29.5597 31.9822 30.5705 30.9714 30.5705 29.7245C30.5705 28.4776 29.5597 27.4668 28.3128 27.4668C27.066 27.4668 26.0552 28.4776 26.0552 29.7245C26.0552 30.9714 27.066 31.9822 28.3128 31.9822Z" stroke="#808080" stroke-linecap="round" stroke-linejoin="round"/>
<path d="M24.4973 20.8585C24.2438 21.0622 24.1832 21.7295 25.1397 21.8324H29.6892V23.4498" stroke="#808080" stroke-linecap="round" stroke-linejoin="round"/>
</svg>
