<svg width="50" height="51" viewBox="0 0 50 51" fill="none" xmlns="http://www.w3.org/2000/svg">
<path d="M25 29C26.6569 29 28 27.6569 28 26C28 24.3431 26.6569 23 25 23C23.3431 23 22 24.3431 22 26C22 27.6569 23.3431 29 25 29Z" stroke="#808080" stroke-width="1.5"/>
<path d="M26.765 16.152C26.398 16 25.932 16 25 16C24.068 16 23.602 16 23.235 16.152C22.9922 16.2525 22.7715 16.3999 22.5857 16.5857C22.3999 16.7716 22.2525 16.9922 22.152 17.235C22.06 17.458 22.023 17.719 22.009 18.098C22.0028 18.372 21.927 18.6399 21.7888 18.8766C21.6506 19.1132 21.4545 19.3109 21.219 19.451C20.9799 19.585 20.7106 19.6561 20.4365 19.6575C20.1624 19.6589 19.8925 19.5906 19.652 19.459C19.316 19.281 19.073 19.183 18.832 19.151C18.3063 19.0819 17.7747 19.2243 17.354 19.547C17.04 19.79 16.806 20.193 16.34 21C15.874 21.807 15.64 22.21 15.589 22.605C15.5546 22.8655 15.5719 23.1301 15.6399 23.3839C15.7078 23.6377 15.8251 23.8756 15.985 24.084C16.133 24.276 16.34 24.437 16.661 24.639C17.134 24.936 17.438 25.442 17.438 26C17.438 26.558 17.134 27.064 16.661 27.36C16.34 27.563 16.132 27.724 15.985 27.916C15.8251 28.1244 15.7078 28.3623 15.6399 28.6161C15.5719 28.8699 15.5546 29.1345 15.589 29.395C15.641 29.789 15.874 30.193 16.339 31C16.806 31.807 17.039 32.21 17.354 32.453C17.5624 32.6129 17.8003 32.7302 18.0541 32.7981C18.3079 32.8661 18.5725 32.8834 18.833 32.849C19.073 32.817 19.316 32.719 19.652 32.541C19.8925 32.4094 20.1624 32.3411 20.4365 32.3425C20.7106 32.3439 20.9799 32.415 21.219 32.549C21.702 32.829 21.989 33.344 22.009 33.902C22.023 34.282 22.059 34.542 22.152 34.765C22.2525 35.0078 22.3999 35.2284 22.5857 35.4143C22.7715 35.6001 22.9922 35.7475 23.235 35.848C23.602 36 24.068 36 25 36C25.932 36 26.398 36 26.765 35.848C27.0078 35.7475 27.2284 35.6001 27.4143 35.4143C27.6001 35.2284 27.7475 35.0078 27.848 34.765C27.94 34.542 27.977 34.282 27.991 33.902C28.011 33.344 28.298 32.828 28.781 32.549C29.0201 32.415 29.2894 32.3439 29.5635 32.3425C29.8376 32.3411 30.1075 32.4094 30.348 32.541C30.684 32.719 30.927 32.817 31.167 32.849C31.4274 32.8834 31.6921 32.8661 31.9459 32.7981C32.1997 32.7302 32.4376 32.6129 32.646 32.453C32.961 32.211 33.194 31.807 33.66 31C34.126 30.193 34.36 29.79 34.411 29.395C34.4454 29.1345 34.4281 28.8699 34.3601 28.6161C34.2922 28.3623 34.1749 28.1244 34.015 27.916C33.867 27.724 33.66 27.563 33.339 27.361C33.1047 27.2186 32.9105 27.019 32.7746 26.7809C32.6387 26.5428 32.5655 26.2741 32.562 26C32.562 25.442 32.866 24.936 33.339 24.64C33.66 24.437 33.868 24.276 34.015 24.084C34.1749 23.8756 34.2922 23.6377 34.3601 23.3839C34.4281 23.1301 34.4454 22.8655 34.411 22.605C34.359 22.211 34.126 21.807 33.661 21C33.194 20.193 32.961 19.79 32.646 19.547C32.4376 19.3871 32.1997 19.2698 31.9459 19.2019C31.6921 19.1339 31.4274 19.1166 31.167 19.151C30.927 19.183 30.684 19.281 30.347 19.459C30.1067 19.5904 29.8369 19.6586 29.563 19.6572C29.289 19.6558 29.02 19.5849 28.781 19.451C28.5454 19.3109 28.3494 19.1132 28.2112 18.8766C28.073 18.6399 27.9972 18.372 27.991 18.098C27.977 17.718 27.941 17.458 27.848 17.235C27.7475 16.9922 27.6001 16.7716 27.4143 16.5857C27.2284 16.3999 27.0078 16.2525 26.765 16.152Z" stroke="#808080" stroke-width="1.5"/>
</svg>
