<svg width="50" height="51" viewBox="0 0 50 51" fill="none" xmlns="http://www.w3.org/2000/svg">
<path d="M17.5 17V23.879L28 34.379L34.879 27.5L24.379 17H17.5ZM16 17C16 16.6022 16.158 16.2206 16.4393 15.9393C16.7206 15.658 17.1022 15.5 17.5 15.5H24.379C24.7768 15.5001 25.1583 15.6582 25.4395 15.9395L35.9395 26.4395C36.2207 26.7208 36.3787 27.1023 36.3787 27.5C36.3787 27.8977 36.2207 28.2792 35.9395 28.5605L29.0605 35.4395C28.7792 35.7207 28.3977 35.8787 28 35.8787C27.6023 35.8787 27.2208 35.7207 26.9395 35.4395L16.4395 24.9395C16.1582 24.6583 16.0001 24.2768 16 23.879V17Z" fill="#808080"/>
<path d="M21.25 21.5C21.0511 21.5 20.8603 21.421 20.7197 21.2803C20.579 21.1397 20.5 20.9489 20.5 20.75C20.5 20.5511 20.579 20.3603 20.7197 20.2197C20.8603 20.079 21.0511 20 21.25 20C21.4489 20 21.6397 20.079 21.7803 20.2197C21.921 20.3603 22 20.5511 22 20.75C22 20.9489 21.921 21.1397 21.7803 21.2803C21.6397 21.421 21.4489 21.5 21.25 21.5ZM21.25 23C21.8467 23 22.419 22.7629 22.841 22.341C23.2629 21.919 23.5 21.3467 23.5 20.75C23.5 20.1533 23.2629 19.581 22.841 19.159C22.419 18.7371 21.8467 18.5 21.25 18.5C20.6533 18.5 20.081 18.7371 19.659 19.159C19.2371 19.581 19 20.1533 19 20.75C19 21.3467 19.2371 21.919 19.659 22.341C20.081 22.7629 20.6533 23 21.25 23ZM14.5 24.629C14.5001 25.0268 14.6582 25.4083 14.9395 25.6895L26.125 36.875L26.0605 36.9395C25.7792 37.2207 25.3977 37.3787 25 37.3787C24.6023 37.3787 24.2208 37.2207 23.9395 36.9395L13.4395 26.4395C13.1582 26.1583 13.0001 25.7768 13 25.379V18.5C13 18.1022 13.158 17.7206 13.4393 17.4393C13.7206 17.158 14.1022 17 14.5 17V24.629Z" fill="#808080"/>
</svg>
