<svg width="23" height="23" viewBox="0 0 23 23" fill="none" xmlns="http://www.w3.org/2000/svg">
<path d="M20.2548 22.375L13.4518 15.375C12.8444 15.875 12.1459 16.2708 11.3563 16.5625C10.5667 16.8542 9.7264 17 8.83553 17C6.62861 17 4.76103 16.2133 3.23279 14.64C1.70455 13.0667 0.940019 11.145 0.939209 8.875C0.939209 6.60417 1.70374 4.6825 3.23279 3.11C4.76184 1.5375 6.62942 0.750833 8.83553 0.75C11.0425 0.75 12.91 1.53667 14.4383 3.11C15.9665 4.68333 16.7311 6.605 16.7319 8.875C16.7319 9.79167 16.5901 10.6562 16.3067 11.4688C16.0232 12.2812 15.6385 13 15.1526 13.625L21.986 20.6562C22.2087 20.8854 22.32 21.1667 22.32 21.5C22.32 21.8333 22.1985 22.125 21.9556 22.375C21.7329 22.6042 21.4494 22.7188 21.1052 22.7188C20.761 22.7188 20.4776 22.6042 20.2548 22.375ZM8.83553 14.5C10.3541 14.5 11.645 13.9529 12.7084 12.8588C13.7717 11.7646 14.303 10.4367 14.3022 8.875C14.3022 7.3125 13.7705 5.98417 12.7072 4.89C11.6438 3.79583 10.3532 3.24917 8.83553 3.25C7.31701 3.25 6.02606 3.79708 4.96269 4.89125C3.89932 5.98542 3.36804 7.31333 3.36885 8.875C3.36885 10.4375 3.90053 11.7658 4.96391 12.86C6.02728 13.9542 7.31782 14.5008 8.83553 14.5Z" fill="white"/>
</svg>
