<svg xmlns="http://www.w3.org/2000/svg" viewBox="0 0 100 125" x="0px" y="0px"><g><path d="M75.174,47.5H67.5V39.83a2.5,2.5,0,0,0-5,0V47.5h-7.67a2.5,2.5,0,0,0,0,5H62.5v7.67a2.5,2.5,0,1,0,5,0V52.5h7.67a2.5,2.5,0,0,0,0-5Z"/><path d="M90,50A25.026,25.026,0,0,0,67.5,25.134V23A10.512,10.512,0,0,0,57,12.5H20.5A10.512,10.512,0,0,0,10,23V77A10.512,10.512,0,0,0,20.5,87.5H57A10.512,10.512,0,0,0,67.5,77V74.866A25.026,25.026,0,0,0,90,50ZM57,82.5H20.5A5.506,5.506,0,0,1,15,77V23a5.506,5.506,0,0,1,5.5-5.5H57A5.506,5.506,0,0,1,62.5,23v2.134a24.991,24.991,0,0,0,0,49.732V77A5.506,5.506,0,0,1,57,82.5Zm8.007-12.509H65a19.991,19.991,0,0,1,0-39.982h.013a19.991,19.991,0,0,1,0,39.982Z"/><path d="M35.02,27.5H25a2.5,2.5,0,0,0,0,5H35.02a2.5,2.5,0,1,0,0-5Z"/></g></svg>