<svg width="29" height="29" viewBox="0 0 29 29" fill="none" xmlns="http://www.w3.org/2000/svg">
<path d="M14.2324 26.8509C7.64159 25.4092 2.37206 19.2883 2.37206 12.8418V5.83715L14.2324 1.16742L26.0927 5.83715V12.8418C26.0927 19.2907 20.8231 25.4092 14.2324 26.8509ZM4.74412 7.00459V12.8418C4.8119 15.541 5.7764 18.144 7.48999 20.2525C9.20359 22.3609 11.5719 23.8585 14.2324 24.5161C16.8929 23.8585 19.2611 22.3609 20.9747 20.2525C22.6883 18.144 23.6528 15.541 23.7206 12.8418V7.00459L14.2324 3.50229L4.74412 7.00459Z" fill="current"/>
<path d="M14.2324 12.8417C15.8699 12.8417 17.1974 11.535 17.1974 9.92316C17.1974 8.31127 15.8699 7.00458 14.2324 7.00458C12.5948 7.00458 11.2673 8.31127 11.2673 9.92316C11.2673 11.535 12.5948 12.8417 14.2324 12.8417Z" fill="current"/>
<path d="M8.30221 17.5115C8.88679 18.56 9.74394 19.4369 10.7859 20.0523C11.8279 20.6677 13.0173 20.9995 14.2324 21.0138C15.4474 20.9995 16.6368 20.6677 17.6788 20.0523C18.7208 19.4369 19.5779 18.56 20.1625 17.5115C20.1329 15.298 16.1988 14.0092 14.2324 14.0092C12.2552 14.0092 8.33186 15.298 8.30221 17.5115Z" fill="current"/>
</svg>
