<svg width="26" height="23" viewBox="0 0 26 23" fill="none" xmlns="http://www.w3.org/2000/svg">
<path d="M10.2473 0C8.88842 0 7.5852 0.531347 6.62433 1.47715C5.66346 2.42296 5.12365 3.70574 5.12365 5.04331C5.12365 6.38088 5.66346 7.66367 6.62433 8.60947C7.5852 9.55528 8.88842 10.0866 10.2473 10.0866C11.6062 10.0866 12.9094 9.55528 13.8703 8.60947C14.8311 7.66367 15.3709 6.38088 15.371 5.04331C15.3709 3.70574 14.8311 2.42296 13.8703 1.47715C12.9094 0.531347 11.6062 0 10.2473 0ZM10.2473 2.52166C10.9267 2.52166 11.5783 2.78733 12.0588 3.26023C12.5392 3.73313 12.8091 4.37453 12.8091 5.04331C12.8091 5.7121 12.5392 6.35349 12.0588 6.82639C11.5783 7.29929 10.9267 7.56497 10.2473 7.56497C9.56786 7.56497 8.91625 7.29929 8.43582 6.82639C7.95538 6.35349 7.68548 5.7121 7.68548 5.04331C7.68548 4.37453 7.95538 3.73313 8.43582 3.26023C8.91625 2.78733 9.56786 2.52166 10.2473 2.52166ZM10.2473 11.3475C6.82726 11.3475 0 13.0244 0 16.3908V20.1732H12.1687C11.8463 19.4092 11.6433 18.6015 11.5666 17.7777H2.43373V16.3908C2.43373 15.5838 6.44299 13.743 10.2473 13.743C10.8878 13.743 11.5282 13.8061 12.1687 13.9069C12.4974 13.1108 12.9512 12.3704 13.5136 11.7131C12.3096 11.4735 11.1567 11.3475 10.2473 11.3475ZM19.8541 11.3475C16.6519 11.3475 14.09 13.8691 14.09 17.0212C14.09 20.1732 16.6519 22.6949 19.8541 22.6949C23.0564 22.6949 25.6182 20.1732 25.6182 17.0212C25.6182 13.8691 23.0564 11.3475 19.8541 11.3475ZM19.8541 13.2387C21.9805 13.2387 23.6969 14.9282 23.6969 17.0212C23.6969 17.7272 23.5047 18.3829 23.1589 18.9124L17.9328 13.7682C18.4708 13.4278 19.1368 13.2387 19.8541 13.2387ZM16.5494 15.1299L21.7755 20.2741C21.2375 20.6145 20.5715 20.8037 19.8541 20.8037C17.7278 20.8037 16.0114 19.1142 16.0114 17.0212C16.0114 16.3151 16.2035 15.6595 16.5494 15.1299Z" fill="current"/>
</svg>
