<svg width="24" height="24" viewBox="0 0 24 24" fill="none" xmlns="http://www.w3.org/2000/svg">
    <path d="M10 4C8.93913 4 7.92172 4.42143 7.17157 5.17157C6.42143 5.92172 6 6.93913 6 8C6 9.06087 6.42143 10.0783 7.17157 10.8284C7.92172 11.5786 8.93913 12 10 12C11.0609 12 12.0783 11.5786 12.8284 10.8284C13.5786 10.0783 14 9.06087 14 8C14 6.93913 13.5786 5.92172 12.8284 5.17157C12.0783 4.42143 11.0609 4 10 4ZM10 6C10.5304 6 11.0391 6.21071 11.4142 6.58579C11.7893 6.96086 12 7.46957 12 8C12 8.53043 11.7893 9.03914 11.4142 9.41421C11.0391 9.78929 10.5304 10 10 10C9.46957 10 8.96086 9.78929 8.58579 9.41421C8.21071 9.03914 8 8.53043 8 8C8 7.46957 8.21071 6.96086 8.58579 6.58579C8.96086 6.21071 9.46957 6 10 6ZM10 13C7.33 13 2 14.33 2 17V20H11.5C11.2483 19.394 11.0899 18.7534 11.03 18.1H3.9V17C3.9 16.36 7.03 14.9 10 14.9C10.5 14.9 11 14.95 11.5 15.03C11.7566 14.3985 12.1109 13.8114 12.55 13.29C11.61 13.1 10.71 13 10 13ZM17.5 13C15 13 13 15 13 17.5C13 20 15 22 17.5 22C20 22 22 20 22 17.5C22 15 20 13 17.5 13ZM17.5 14.5C19.16 14.5 20.5 15.84 20.5 17.5C20.5 18.06 20.35 18.58 20.08 19L16 14.92C16.42 14.65 16.94 14.5 17.5 14.5ZM14.92 16L19 20.08C18.58 20.35 18.06 20.5 17.5 20.5C15.84 20.5 14.5 19.16 14.5 17.5C14.5 16.94 14.65 16.42 14.92 16Z" fill="current"/>
</svg>
