<svg width="12" height="14" viewBox="0 0 12 14" fill="none" xmlns="http://www.w3.org/2000/svg">
<path fill-rule="evenodd" clip-rule="evenodd" d="M5.87553 13.1257L6.40169 12.584C6.99872 11.9593 7.53572 11.3665 8.01351 10.8027L8.40792 10.3273C10.0548 8.29983 10.8786 6.69069 10.8786 5.50136C10.8786 2.96269 8.63889 0.904785 5.87553 0.904785C3.11217 0.904785 0.872467 2.96269 0.872467 5.50136C0.872467 6.69069 1.69631 8.29983 3.34315 10.3273L3.73756 10.8027C4.41917 11.6007 5.1323 12.3751 5.87553 13.1257Z" stroke="#current" stroke-linecap="round" stroke-linejoin="round"/>
<path d="M5.87553 7.38093C7.02683 7.38093 7.96014 6.52814 7.96014 5.47617C7.96014 4.4242 7.02683 3.57141 5.87553 3.57141C4.72424 3.57141 3.79092 4.4242 3.79092 5.47617C3.79092 6.52814 4.72424 7.38093 5.87553 7.38093Z" stroke="current" stroke-linecap="round" stroke-linejoin="round"/>
</svg>
