<svg width="16" height="16" viewBox="0 0 16 16" fill="current" xmlns="http://www.w3.org/2000/svg">
<path fill-rule="evenodd" clip-rule="evenodd" d="M5.25 5.49705C5.05109 5.49705 4.86032 5.41803 4.71967 5.27738C4.57902 5.13672 4.5 4.94596 4.5 4.74705V4.00005C4.10218 4.00005 3.72064 4.15808 3.43934 4.43939C3.15804 4.72069 3 5.10222 3 5.50005V6.50005H13V5.50005C13 5.10222 12.842 4.72069 12.5607 4.43939C12.2794 4.15808 11.8978 4.00005 11.5 4.00005V4.75005C11.5 4.94896 11.421 5.13972 11.2803 5.28038C11.1397 5.42103 10.9489 5.50005 10.75 5.50005C10.5511 5.50005 10.3603 5.42103 10.2197 5.28038C10.079 5.13972 10 4.94896 10 4.75005V4.00005H6V4.74705C6 4.94596 5.92098 5.13672 5.78033 5.27738C5.63968 5.41803 5.44891 5.49705 5.25 5.49705ZM10 2.50005H6V1.74805C6 1.54913 5.92098 1.35837 5.78033 1.21772C5.63968 1.07706 5.44891 0.998047 5.25 0.998047C5.05109 0.998047 4.86032 1.07706 4.71967 1.21772C4.57902 1.35837 4.5 1.54913 4.5 1.74805V2.50005C3.70435 2.50005 2.94129 2.81612 2.37868 3.37873C1.81607 3.94134 1.5 4.7044 1.5 5.50005V11.5C1.5 12.2957 1.81607 13.0588 2.37868 13.6214C2.94129 14.184 3.70435 14.5 4.5 14.5H11.5C12.2956 14.5 13.0587 14.184 13.6213 13.6214C14.1839 13.0588 14.5 12.2957 14.5 11.5V5.50005C14.5 4.7044 14.1839 3.94134 13.6213 3.37873C13.0587 2.81612 12.2956 2.50005 11.5 2.50005V1.75005C11.5 1.55113 11.421 1.36037 11.2803 1.21972C11.1397 1.07906 10.9489 1.00005 10.75 1.00005C10.5511 1.00005 10.3603 1.07906 10.2197 1.21972C10.079 1.36037 10 1.55113 10 1.75005V2.50005ZM3 8.00005V11.5C3 11.8979 3.15804 12.2794 3.43934 12.5607C3.72064 12.842 4.10218 13 4.5 13H11.5C11.8978 13 12.2794 12.842 12.5607 12.5607C12.842 12.2794 13 11.8979 13 11.5V8.00005H3Z"/>
</svg>
