<svg width="22" height="19" viewBox="0 0 22 19" fill="current" xmlns="http://www.w3.org/2000/svg">
<path d="M18.5546 1.86111H16.4853V0.930554C16.4853 0.683756 16.3763 0.447066 16.1823 0.272553C15.9882 0.0980402 15.7251 0 15.4506 0C15.1762 0 14.9131 0.0980402 14.719 0.272553C14.525 0.447066 14.416 0.683756 14.416 0.930554V1.86111H8.20816V0.930554C8.20816 0.683756 8.09915 0.447066 7.90512 0.272553C7.71108 0.0980402 7.44792 0 7.17352 0C6.89911 0 6.63595 0.0980402 6.44191 0.272553C6.24788 0.447066 6.13887 0.683756 6.13887 0.930554V1.86111H4.06959C3.24638 1.86111 2.45688 2.15523 1.87479 2.67877C1.29269 3.20231 0.965668 3.91238 0.965668 4.65277V15.8194C0.965668 16.5598 1.29269 17.2699 1.87479 17.7934C2.45688 18.317 3.24638 18.6111 4.06959 18.6111H18.5546C19.3778 18.6111 20.1673 18.317 20.7494 17.7934C21.3315 17.2699 21.6585 16.5598 21.6585 15.8194V4.65277C21.6585 3.91238 21.3315 3.20231 20.7494 2.67877C20.1673 2.15523 19.3778 1.86111 18.5546 1.86111ZM19.5892 15.8194C19.5892 16.0662 19.4802 16.3029 19.2862 16.4774C19.0921 16.6519 18.829 16.75 18.5546 16.75H4.06959C3.79519 16.75 3.53202 16.6519 3.33799 16.4774C3.14396 16.3029 3.03495 16.0662 3.03495 15.8194V9.30554H19.5892V15.8194ZM19.5892 7.44444H3.03495V4.65277C3.03495 4.40597 3.14396 4.16928 3.33799 3.99477C3.53202 3.82026 3.79519 3.72222 4.06959 3.72222H6.13887V4.65277C6.13887 4.89957 6.24788 5.13626 6.44191 5.31077C6.63595 5.48529 6.89911 5.58333 7.17352 5.58333C7.44792 5.58333 7.71108 5.48529 7.90512 5.31077C8.09915 5.13626 8.20816 4.89957 8.20816 4.65277V3.72222H14.416V4.65277C14.416 4.89957 14.525 5.13626 14.719 5.31077C14.9131 5.48529 15.1762 5.58333 15.4506 5.58333C15.7251 5.58333 15.9882 5.48529 16.1823 5.31077C16.3763 5.13626 16.4853 4.89957 16.4853 4.65277V3.72222H18.5546C18.829 3.72222 19.0921 3.82026 19.2862 3.99477C19.4802 4.16928 19.5892 4.40597 19.5892 4.65277V7.44444Z"/>
</svg>
