<svg width="26" height="26" viewBox="0 0 26 26" fill="none" xmlns="http://www.w3.org/2000/svg">
<path d="M5.41675 19.5V23.5798L7.058 22.5951L12.2168 19.5H17.3334C18.5283 19.5 19.5001 18.5283 19.5001 17.3333V8.66667C19.5001 7.47175 18.5283 6.5 17.3334 6.5H4.33341C3.1385 6.5 2.16675 7.47175 2.16675 8.66667V17.3333C2.16675 18.5283 3.1385 19.5 4.33341 19.5H5.41675ZM4.33341 8.66667H17.3334V17.3333H11.6167L7.58342 19.7535V17.3333H4.33341V8.66667Z" fill="#808080" stroke="none"/>
<path d="M21.6667 2.16675H8.66667C7.47175 2.16675 6.5 3.1385 6.5 4.33341H19.5C20.6949 4.33341 21.6667 5.30516 21.6667 6.50008V15.1667C22.8616 15.1667 23.8333 14.195 23.8333 13.0001V4.33341C23.8333 3.1385 22.8616 2.16675 21.6667 2.16675Z" fill="#808080" stroke="none"/>
</svg>
