<svg xmlns="http://www.w3.org/2000/svg" xmlns:xlink="http://www.w3.org/1999/xlink" viewBox="0 0 50 65" version="1.1" x="0px" y="0px"><title>check_in</title><desc>Created with Sketch.</desc><g stroke="none" stroke-width="1" fill="none" fill-rule="evenodd"><g transform="translate(-948.000000, -306.000000)" fill="#000000"><g transform="translate(943.000000, 302.000000)"><path d="M22.2940458,29 C20.2119227,32.1557922 19,35.9363662 19,40 C19,42.0904114 19.3207077,44.1059176 19.9156046,46 L7,46 C5.8954305,46 5,45.1045695 5,44 L5,35 C5,31.6862915 7.6862915,29 11,29 L22.2940458,29 Z M21,26 C16.0294373,26 12,17.6601058 12,12.8 C12,7.9398942 16.0294373,4 21,4 C25.9705627,4 30,7.9398942 30,12.8 C30,17.6601058 25.9705627,26 21,26 Z"/><path d="M36.1715729,42.2426407 L33.3431458,39.4142136 C32.5620972,38.633165 31.2957672,38.633165 30.5147186,39.4142136 C29.73367,40.1952621 29.73367,41.4615921 30.5147186,42.2426407 L34.7573593,46.4852814 C35.1478836,46.8758057 35.6597282,47.0710678 36.1715729,47.0710678 C36.6834175,47.0710678 37.1952621,46.8758057 37.5857864,46.4852814 L47.4852814,36.5857864 C48.26633,35.8047379 48.26633,34.5384079 47.4852814,33.7573593 C46.7042328,32.9763107 45.4379028,32.9763107 44.6568542,33.7573593 L36.1715729,42.2426407 Z M39,56 C30.163444,56 23,48.836556 23,40 C23,31.163444 30.163444,24 39,24 C47.836556,24 55,31.163444 55,40 C55,48.836556 47.836556,56 39,56 Z"/></g></g></g></svg>