<svg width="23" height="22" viewBox="0 0 23 22" fill="none" xmlns="http://www.w3.org/2000/svg">
<path d="M19.065 2.32001H16.9302V1.26932C16.9302 0.990657 16.8177 0.72341 16.6175 0.526368C16.4173 0.329325 16.1458 0.218628 15.8627 0.218628C15.5796 0.218628 15.3081 0.329325 15.108 0.526368C14.9078 0.72341 14.7953 0.990657 14.7953 1.26932V2.32001H8.39075V1.26932C8.39075 0.990657 8.27829 0.72341 8.07811 0.526368C7.87793 0.329325 7.60642 0.218628 7.32333 0.218628C7.04023 0.218628 6.76872 0.329325 6.56854 0.526368C6.36836 0.72341 6.2559 0.990657 6.2559 1.26932V2.32001H4.12104C3.27175 2.32001 2.45723 2.6521 1.85669 3.24323C1.25614 3.83435 0.918762 4.6361 0.918762 5.47208V18.0804C0.918762 18.9163 1.25614 19.7181 1.85669 20.3092C2.45723 20.9003 3.27175 21.2324 4.12104 21.2324H19.065C19.9143 21.2324 20.7288 20.9003 21.3294 20.3092C21.9299 19.7181 22.2673 18.9163 22.2673 18.0804V5.47208C22.2673 4.6361 21.9299 3.83435 21.3294 3.24323C20.7288 2.6521 19.9143 2.32001 19.065 2.32001ZM20.1325 18.0804C20.1325 18.359 20.02 18.6263 19.8198 18.8233C19.6196 19.0203 19.3481 19.131 19.065 19.131H4.12104C3.83794 19.131 3.56644 19.0203 3.36626 18.8233C3.16608 18.6263 3.05362 18.359 3.05362 18.0804V10.7255H20.1325V18.0804ZM20.1325 8.62415H3.05362V5.47208C3.05362 5.19342 3.16608 4.92617 3.36626 4.72913C3.56644 4.53208 3.83794 4.42139 4.12104 4.42139H6.2559V5.47208C6.2559 5.75074 6.36836 6.01798 6.56854 6.21503C6.76872 6.41207 7.04023 6.52277 7.32333 6.52277C7.60642 6.52277 7.87793 6.41207 8.07811 6.21503C8.27829 6.01798 8.39075 5.75074 8.39075 5.47208V4.42139H14.7953V5.47208C14.7953 5.75074 14.9078 6.01798 15.108 6.21503C15.3081 6.41207 15.5796 6.52277 15.8627 6.52277C16.1458 6.52277 16.4173 6.41207 16.6175 6.21503C16.8177 6.01798 16.9302 5.75074 16.9302 5.47208V4.42139H19.065C19.3481 4.42139 19.6196 4.53208 19.8198 4.72913C20.02 4.92617 20.1325 5.19342 20.1325 5.47208V8.62415Z" fill="current"/>
</svg>
