<svg width="40" height="40" viewBox="0 0 40 40" fill="none" xmlns="http://www.w3.org/2000/svg">
<rect width="40" height="40" rx="20" fill="#EAF8F0"/>
<path d="M26.0714 11.8611H24.1807V10.9306C24.1807 10.6838 24.0811 10.4471 23.9038 10.2726C23.7265 10.098 23.486 10 23.2353 10C22.9846 10 22.7441 10.098 22.5668 10.2726C22.3895 10.4471 22.2899 10.6838 22.2899 10.9306V11.8611H16.6176V10.9306C16.6176 10.6838 16.518 10.4471 16.3408 10.2726C16.1635 10.098 15.923 10 15.6723 10C15.4215 10 15.1811 10.098 15.0038 10.2726C14.8265 10.4471 14.7269 10.6838 14.7269 10.9306V11.8611H12.8361C12.0839 11.8611 11.3626 12.1552 10.8307 12.6788C10.2988 13.2023 10 13.9124 10 14.6528V25.8194C10 26.5598 10.2988 27.2699 10.8307 27.7934C11.3626 28.317 12.0839 28.6111 12.8361 28.6111H26.0714C26.8236 28.6111 27.545 28.317 28.0769 27.7934C28.6088 27.2699 28.9076 26.5598 28.9076 25.8194V14.6528C28.9076 13.9124 28.6088 13.2023 28.0769 12.6788C27.545 12.1552 26.8236 11.8611 26.0714 11.8611ZM27.0168 25.8194C27.0168 26.0662 26.9172 26.3029 26.7399 26.4774C26.5626 26.6519 26.3222 26.75 26.0714 26.75H12.8361C12.5854 26.75 12.3449 26.6519 12.1677 26.4774C11.9904 26.3029 11.8908 26.0662 11.8908 25.8194V19.3055H27.0168V25.8194ZM27.0168 17.4444H11.8908V14.6528C11.8908 14.406 11.9904 14.1693 12.1677 13.9948C12.3449 13.8203 12.5854 13.7222 12.8361 13.7222H14.7269V14.6528C14.7269 14.8996 14.8265 15.1363 15.0038 15.3108C15.1811 15.4853 15.4215 15.5833 15.6723 15.5833C15.923 15.5833 16.1635 15.4853 16.3408 15.3108C16.518 15.1363 16.6176 14.8996 16.6176 14.6528V13.7222H22.2899V14.6528C22.2899 14.8996 22.3895 15.1363 22.5668 15.3108C22.7441 15.4853 22.9846 15.5833 23.2353 15.5833C23.486 15.5833 23.7265 15.4853 23.9038 15.3108C24.0811 15.1363 24.1807 14.8996 24.1807 14.6528V13.7222H26.0714C26.3222 13.7222 26.5626 13.8203 26.7399 13.9948C26.9172 14.1693 27.0168 14.406 27.0168 14.6528V17.4444Z" fill="#31BB6B"/>
</svg>
