<svg xmlns="http://www.w3.org/2000/svg" xmlns:xlink="http://www.w3.org/1999/xlink" version="1.1" x="0px" y="0px" viewBox="0 0 100 125" enable-background="new 0 0 100 100" xml:space="preserve"><path d="M93.603,79.457c-1.944-0.439-3.755-1.089-5.513-2.045c-1.287-0.701-2.187,0.056-1.804,1.481  c0.405,1.507,0.018,1.91-1.517,1.843c-6.144-0.268-12.291-0.55-18.438-0.61c-8.432-0.083-16.838-0.902-25.298-0.355  c-9.256,0.598-18.562-0.418-27.824,0.48c-1.301,0.126-1.345-0.391-1.03-1.341c2.409-7.266,4.793-14.541,7.238-21.795  c1.583-4.699,3.247-9.372,4.897-14.049c0.234-0.661,0.303-1.679,1.093-1.738c0.998-0.074,0.837,1.042,0.999,1.666  c0.91,3.505,2.972,6.494,4.322,9.802c0.425,1.041,0.597,1.787,0.081,2.929c-1.065,2.358-0.05,5.593,1.698,5.912  c4.807,0.877,6.747-2.108,6.089-5.828c-0.162-0.916-0.035-1.455,0.468-2.095c2.498-3.181,4.966-6.387,7.477-9.559  c1.292-1.633,2.472-1.549,3.445,0.278c2.241,4.205,4.39,8.459,7.208,12.329c0.273,0.374,0.604,0.825,0.407,1.421  c-0.58,1.754-0.254,3.295,1.623,3.894c1.956,0.625,3.804-0.685,4.729-2.593c0.652-1.345,0.47-2.888,1.179-4.122  c2.478-4.317,4.931-8.661,7.661-12.819c1.537-2.341,2.776-5.094,6.017-5.925c1.11-0.285,1.936-1.524,2.445-2.726  c0.714-1.686,0.293-3.205-0.81-4.505c-0.971-1.146-2.266-2.181-3.822-1.659c-1.536,0.516-2.216,1.978-2.614,3.556  c-0.268,1.062-0.198,2.132,0.165,3.033c0.474,1.176,0.071,1.95-0.561,2.795c-1.934,2.589-3.681,5.286-5.225,8.137  c-1.498,2.765-3.215,5.415-4.92,8.061c-1.708,2.65-3.861,2.699-5.501,0.127c-2.285-3.583-4.292-7.327-6.257-11.094  c-0.327-0.626-0.178-1.046-0.001-1.631c0.532-1.755-0.182-3.197-1.517-4.264c-1.069-0.855-2.405-0.849-3.512-0.095  c-1.276,0.869-2.022,2.103-1.584,3.781c0.226,0.865,0.26,1.652-0.401,2.471c-2.586,3.199-5.081,6.471-7.626,9.704  c-1.474,1.872-3.075,1.659-4.152-0.542c-1.029-2.103-2.267-4.139-2.997-6.343c-0.845-2.55-2.812-5.015-1.194-7.998  c0.183-0.337-0.082-1.016-0.302-1.456c-0.917-1.833-3.313-2.476-5.042-1.405c-2.73,1.691-3.213,3.175-1.591,5.322  c0.526,0.695,0.814,1.19,0.467,2.104c-3.086,8.116-5.864,16.339-8.419,24.638c-0.716,2.327-1.539,4.62-2.313,6.929  c-0.125-0.021-0.251-0.043-0.376-0.064c0-0.546,0.024-1.094-0.004-1.639c-0.38-7.442,0.288-14.859,0.502-22.288  c0.222-7.712-0.238-15.4-0.877-23.081c-0.094-1.131-0.238-2.203,1.581-2.019c1.111,0.112,1.073-0.953,1.073-1.783  c0.001-2.606-1.107-5.002-1.415-7.556c-0.131-1.088-1.374-1.264-2.16-1.558c-0.89-0.332-0.737,0.858-1.097,1.335  c-1.568,2.076-2.389,4.522-3.358,6.895c-0.818,2.004-0.403,2.804,1.77,2.667c1.906-0.119,2.174,0.782,1.734,2.189  c-0.502,1.606-0.502,3.243-0.259,4.812c0.794,5.128,0.596,10.308,0.509,15.425C8.955,57.867,8.408,68.836,8.54,79.82  c0.033,2.682,0.261,3.038,2.983,3.03c2.053-0.006,4.105-0.33,6.159-0.345c7.964-0.061,15.93,0.036,23.892-0.119  c3.14-0.061,6.278-0.479,9.426-0.22c7.042,0.579,14.109,0.278,21.163,0.558c4.305,0.171,8.631,0.459,12.954,0.427  c0.448-0.003,1.032-0.333,1.28,0.434c0.308,0.953-0.669,2.392,0.901,2.843c1.442,0.414,1.434-1.451,2.505-1.809  c0.954-0.319,1.816-0.924,2.707-1.422c0.573-0.32,1.199-0.597,1.675-1.031C95.451,81.01,95.23,79.825,93.603,79.457z"/></svg>