
<svg width="24" height="24" viewBox="0 0 24 24" fill="none" xmlns="http://www.w3.org/2000/svg">
<path d="M14.25 2.625C10.3148 2.625 7.12498 5.81484 7.12498 9.75C7.12498 11.3977 7.68513 12.9141 8.62263 14.1211L7.65935 15.0844L6.1992 13.6242C6.1635 13.5893 6.11554 13.5697 6.0656 13.5697C6.01566 13.5697 5.9677 13.5893 5.93201 13.6242L4.9992 14.557C4.96427 14.5927 4.94471 14.6407 4.94471 14.6906C4.94471 14.7406 4.96427 14.7885 4.9992 14.8242L6.45935 16.2844L5.40701 17.3367L3.94685 15.8766C3.91116 15.8416 3.8632 15.8221 3.81326 15.8221C3.76332 15.8221 3.71536 15.8416 3.67966 15.8766L2.74685 16.8094C2.71192 16.8451 2.69236 16.893 2.69236 16.943C2.69236 16.9929 2.71192 17.0409 2.74685 17.0766L4.20701 18.5367L2.67654 20.0672C2.64164 20.1024 2.62207 20.15 2.62207 20.1996C2.62207 20.2492 2.64164 20.2968 2.67654 20.332L3.66795 21.3234C3.7406 21.3961 3.86013 21.3961 3.93279 21.3234L9.87654 15.3797C11.1277 16.3502 12.6665 16.8763 14.25 16.875C18.1851 16.875 21.375 13.6852 21.375 9.75C21.375 5.81484 18.1851 2.625 14.25 2.625ZM18.0281 13.5281C17.0203 14.5383 15.6773 15.0938 14.25 15.0938C12.8226 15.0938 11.4797 14.5383 10.4719 13.5281C9.46169 12.5203 8.90623 11.1773 8.90623 9.75C8.90623 8.32266 9.46169 6.97969 10.4719 5.97188C11.4797 4.96172 12.8226 4.40625 14.25 4.40625C15.6773 4.40625 17.0203 4.96172 18.0281 5.97188C19.0383 6.97969 19.5937 8.32266 19.5937 9.75C19.5937 11.1773 19.0383 12.5203 18.0281 13.5281Z" fill="current"/>
</svg>
