<svg xmlns="http://www.w3.org/2000/svg" data-name="Layer 2" viewBox="0 0 128 160" x="0px" y="0px"><path d="M49.59,49.78c0,7.9,6.46,14.33,14.41,14.33s14.41-6.43,14.41-14.33-6.46-14.33-14.41-14.33-14.41,6.43-14.41,14.33Zm14.41,11.33c-6.29,0-11.41-5.08-11.41-11.33s5.12-11.33,11.41-11.33,11.41,5.08,11.41,11.33-5.12,11.33-11.41,11.33Z"/><path d="M88.67,39.1c0,6.72,5.49,12.18,12.24,12.18s12.24-5.46,12.24-12.18-5.49-12.18-12.24-12.18-12.24,5.46-12.24,12.18Zm21.49,0c0,5.06-4.15,9.18-9.24,9.18s-9.24-4.12-9.24-9.18,4.15-9.18,9.24-9.18,9.24,4.12,9.24,9.18Z"/><path d="M27.08,51.28c6.75,0,12.24-5.46,12.24-12.18s-5.49-12.18-12.24-12.18-12.24,5.46-12.24,12.18,5.49,12.18,12.24,12.18Zm0-21.36c5.1,0,9.24,4.12,9.24,9.18s-4.15,9.18-9.24,9.18-9.24-4.12-9.24-9.18,4.15-9.18,9.24-9.18Z"/><path d="M107.19,54.28h-12.54c-6.51,0-11.81,5.27-11.81,11.75v2.74c-1.53-.73-3.23-1.14-5.03-1.14-29.55,0-29.41-.39-32.64,1.14v-2.74c0-6.48-5.3-11.75-11.81-11.75h-12.54c-6.51,0-11.81,5.27-11.81,11.75v16.77c0,2.71,2.21,4.92,4.94,4.92h24.47v8.42c0,2.72,2.21,4.93,4.93,4.93h41.32c2.72,0,4.93-2.21,4.93-4.93v-8.42h24.47c2.72,0,4.94-2.21,4.94-4.92v-16.77c0-6.48-5.3-11.75-11.81-11.75Zm8.81,28.52c0,1.06-.87,1.92-1.94,1.92h-24.47c0-5.17,.63-9.38-3.29-13.46-.62-.64-.46,.27-.46-5.23,0-4.83,3.95-8.75,8.81-8.75h12.54c4.86,0,8.81,3.93,8.81,8.75v16.77Zm-104,0v-16.77c0-4.83,3.95-8.75,8.81-8.75h12.54c4.86,0,8.81,3.93,8.81,8.75,0,7.47,.34,3.09-2.21,7.56-1.93,3.37-1.54,5.96-1.54,11.13H13.94c-1.07,0-1.94-.86-1.94-1.92Zm29.41,13.34c0-18.7-.13-17.65,.42-19.4,1.15-3.57,4.51-6.11,8.37-6.11h27.61c4.3,0,7.95,3.15,8.64,7.28,.2,1.12,.14,.25,.14,18.24,0,1.06-.87,1.93-1.93,1.93H43.34c-1.06,0-1.93-.86-1.93-1.93Z"/></svg>