<svg width="16" height="16" viewBox="0 0 16 16" fill="none" xmlns="http://www.w3.org/2000/svg">
<path fill-rule="evenodd" clip-rule="evenodd" d="M7.99999 14.1257L8.48075 13.584C9.02627 12.9593 9.51694 12.3665 9.95351 11.8027L10.3139 11.3273C11.8187 9.29983 12.5714 7.69069 12.5714 6.50136C12.5714 3.96269 10.5249 1.90479 7.99999 1.90479C5.47503 1.90479 3.42856 3.96269 3.42856 6.50136C3.42856 7.69069 4.18132 9.29983 5.68608 11.3273L6.04646 11.8027C6.66927 12.6007 7.32088 13.3751 7.99999 14.1257Z" stroke="#31BB6B" stroke-linecap="round" stroke-linejoin="round"/>
<path d="M7.99998 8.38093C9.05195 8.38093 9.90474 7.52814 9.90474 6.47617C9.90474 5.4242 9.05195 4.57141 7.99998 4.57141C6.94801 4.57141 6.09521 5.4242 6.09521 6.47617C6.09521 7.52814 6.94801 8.38093 7.99998 8.38093Z" stroke="#31BB6B" stroke-linecap="round" stroke-linejoin="round"/>
</svg>
