<svg width="24" height="24" viewBox="0 0 24 24" fill="none" xmlns="http://www.w3.org/2000/svg">
<path d="M6.25 12C6.05109 12 5.86032 12.079 5.71967 12.2197C5.57902 12.3603 5.5 12.5511 5.5 12.75C5.5 12.9489 5.57902 13.1397 5.71967 13.2803C5.86032 13.421 6.05109 13.5 6.25 13.5H6.75C6.94891 13.5 7.13968 13.421 7.28033 13.2803C7.42098 13.1397 7.5 12.9489 7.5 12.75C7.5 12.5511 7.42098 12.3603 7.28033 12.2197C7.13968 12.079 6.94891 12 6.75 12H6.25ZM5.5 9.25C5.5 9.05109 5.57902 8.86032 5.71967 8.71967C5.86032 8.57902 6.05109 8.5 6.25 8.5H6.75C6.94891 8.5 7.13968 8.57902 7.28033 8.71967C7.42098 8.86032 7.5 9.05109 7.5 9.25C7.5 9.44891 7.42098 9.63968 7.28033 9.78033C7.13968 9.92098 6.94891 10 6.75 10H6.25C6.05109 10 5.86032 9.92098 5.71967 9.78033C5.57902 9.63968 5.5 9.44891 5.5 9.25ZM6.25 5C6.05109 5 5.86032 5.07902 5.71967 5.21967C5.57902 5.36032 5.5 5.55109 5.5 5.75C5.5 5.94891 5.57902 6.13968 5.71967 6.28033C5.86032 6.42098 6.05109 6.5 6.25 6.5H6.75C6.94891 6.5 7.13968 6.42098 7.28033 6.28033C7.42098 6.13968 7.5 5.94891 7.5 5.75C7.5 5.55109 7.42098 5.36032 7.28033 5.21967C7.13968 5.07902 6.94891 5 6.75 5H6.25ZM9 12.75C9 12.5511 9.07902 12.3603 9.21967 12.2197C9.36032 12.079 9.55109 12 9.75 12H10.25C10.4489 12 10.6397 12.079 10.7803 12.2197C10.921 12.3603 11 12.5511 11 12.75C11 12.9489 10.921 13.1397 10.7803 13.2803C10.6397 13.421 10.4489 13.5 10.25 13.5H9.75C9.55109 13.5 9.36032 13.421 9.21967 13.2803C9.07902 13.1397 9 12.9489 9 12.75ZM9.75 8.5C9.55109 8.5 9.36032 8.57902 9.21967 8.71967C9.07902 8.86032 9 9.05109 9 9.25C9 9.44891 9.07902 9.63968 9.21967 9.78033C9.36032 9.92098 9.55109 10 9.75 10H10.25C10.4489 10 10.6397 9.92098 10.7803 9.78033C10.921 9.63968 11 9.44891 11 9.25C11 9.05109 10.921 8.86032 10.7803 8.71967C10.6397 8.57902 10.4489 8.5 10.25 8.5H9.75ZM9 5.75C9 5.55109 9.07902 5.36032 9.21967 5.21967C9.36032 5.07902 9.55109 5 9.75 5H10.25C10.4489 5 10.6397 5.07902 10.7803 5.21967C10.921 5.36032 11 5.55109 11 5.75C11 5.94891 10.921 6.13968 10.7803 6.28033C10.6397 6.42098 10.4489 6.5 10.25 6.5H9.75C9.55109 6.5 9.36032 6.42098 9.21967 6.28033C9.07902 6.13968 9 5.94891 9 5.75ZM13.25 12C13.0511 12 12.8603 12.079 12.7197 12.2197C12.579 12.3603 12.5 12.5511 12.5 12.75C12.5 12.9489 12.579 13.1397 12.7197 13.2803C12.8603 13.421 13.0511 13.5 13.25 13.5H13.75C13.9489 13.5 14.1397 13.421 14.2803 13.2803C14.421 13.1397 14.5 12.9489 14.5 12.75C14.5 12.5511 14.421 12.3603 14.2803 12.2197C14.1397 12.079 13.9489 12 13.75 12H13.25ZM12.5 9.25C12.5 9.05109 12.579 8.86032 12.7197 8.71967C12.8603 8.57902 13.0511 8.5 13.25 8.5H13.75C13.9489 8.5 14.1397 8.57902 14.2803 8.71967C14.421 8.86032 14.5 9.05109 14.5 9.25C14.5 9.44891 14.421 9.63968 14.2803 9.78033C14.1397 9.92098 13.9489 10 13.75 10H13.25C13.0511 10 12.8603 9.92098 12.7197 9.78033C12.579 9.63968 12.5 9.44891 12.5 9.25ZM13.25 5C13.0511 5 12.8603 5.07902 12.7197 5.21967C12.579 5.36032 12.5 5.55109 12.5 5.75C12.5 5.94891 12.579 6.13968 12.7197 6.28033C12.8603 6.42098 13.0511 6.5 13.25 6.5H13.75C13.9489 6.5 14.1397 6.42098 14.2803 6.28033C14.421 6.13968 14.5 5.94891 14.5 5.75C14.5 5.55109 14.421 5.36032 14.2803 5.21967C14.1397 5.07902 13.9489 5 13.75 5H13.25Z" fill="#808080"/>
<path d="M2 20V3C2 2.46957 2.21071 1.96086 2.58579 1.58579C2.96086 1.21071 3.46957 1 4 1H16C16.5304 1 17.0391 1.21071 17.4142 1.58579C17.7893 1.96086 18 2.46957 18 3V20C18 20.173 17.978 20.34 17.937 20.5H20C20.1326 20.5 20.2598 20.4473 20.3536 20.3536C20.4473 20.2598 20.5 20.1326 20.5 20V12C20.5 11.9224 20.4819 11.8458 20.4472 11.7764C20.4125 11.707 20.3621 11.6466 20.3 11.6L19.8 11.225C19.6409 11.1057 19.5357 10.928 19.5075 10.7311C19.4794 10.5342 19.5307 10.3341 19.65 10.175C19.7693 10.0159 19.947 9.91067 20.1439 9.88254C20.3408 9.85441 20.5409 9.90565 20.7 10.025L21.2 10.4C21.704 10.778 22 11.37 22 12V20C22 20.5304 21.7893 21.0391 21.4142 21.4142C21.0391 21.7893 20.5304 22 20 22H16.438C16.3822 22.0001 16.3265 21.994 16.272 21.982C16.183 21.994 16.092 22 16 22H12.25C12.0511 22 11.8603 21.921 11.7197 21.7803C11.579 21.6397 11.5 21.4489 11.5 21.25V19H8.5V21.25C8.5 21.4489 8.42098 21.6397 8.28033 21.7803C8.13968 21.921 7.94891 22 7.75 22H4C3.46957 22 2.96086 21.7893 2.58579 21.4142C2.21071 21.0391 2 20.5304 2 20ZM4 20.5H7V18.25C7 18.0511 7.07902 17.8603 7.21967 17.7197C7.36032 17.579 7.55109 17.5 7.75 17.5H12.25C12.4489 17.5 12.6397 17.579 12.7803 17.7197C12.921 17.8603 13 18.0511 13 18.25V20.5H16C16.1326 20.5 16.2598 20.4473 16.3536 20.3536C16.4473 20.2598 16.5 20.1326 16.5 20V3C16.5 2.86739 16.4473 2.74021 16.3536 2.64645C16.2598 2.55268 16.1326 2.5 16 2.5H4C3.86739 2.5 3.74021 2.55268 3.64645 2.64645C3.55268 2.74021 3.5 2.86739 3.5 3V20C3.5 20.1326 3.55268 20.2598 3.64645 20.3536C3.74021 20.4473 3.86739 20.5 4 20.5Z" fill="#808080"/>
</svg>
