<svg width="20" height="20" viewBox="0 0 20 20" fill="none" xmlns="http://www.w3.org/2000/svg">
<path d="M13.7198 3.59098L15.8598 5.75095M15.0956 1.68812L9.30656 7.53137C9.00744 7.83286 8.80344 8.21699 8.72028 8.63533L8.18555 11.3371L10.8622 10.7963C11.2767 10.7127 11.6567 10.5076 11.9559 10.2056L17.745 4.36232C17.9189 4.18673 18.0569 3.97828 18.1511 3.74886C18.2452 3.51944 18.2937 3.27354 18.2937 3.02522C18.2937 2.7769 18.2452 2.53101 18.1511 2.30159C18.0569 2.07217 17.9189 1.86371 17.745 1.68812C17.571 1.51253 17.3645 1.37325 17.1372 1.27822C16.9099 1.18319 16.6663 1.13428 16.4203 1.13428C16.1743 1.13428 15.9307 1.18319 15.7034 1.27822C15.4761 1.37325 15.2696 1.51253 15.0956 1.68812Z" stroke="black" stroke-opacity="0.71" stroke-width="2" stroke-linecap="round" stroke-linejoin="round"/>
<path d="M16.2723 13.3778V16.4387C16.2723 16.9799 16.0593 17.4989 15.6802 17.8816C15.3011 18.2643 14.7868 18.4793 14.2507 18.4793H3.13153C2.59535 18.4793 2.08113 18.2643 1.70199 17.8816C1.32286 17.4989 1.10986 16.9799 1.10986 16.4387V5.2154C1.10986 4.6742 1.32286 4.15517 1.70199 3.77248C2.08113 3.3898 2.59535 3.1748 3.13153 3.1748H6.16402" stroke="black" stroke-opacity="0.71" stroke-width="2" stroke-linecap="round" stroke-linejoin="round"/>
</svg>
