<svg width="28" height="28" viewBox="0 0 28 28" fill="none" xmlns="http://www.w3.org/2000/svg">
<path d="M25.6666 25.6667H2.33331" stroke="currentColor" stroke-width="1.5" stroke-linecap="round"/>
<path d="M19.8333 25.6667V7.00001C19.8333 4.79968 19.8333 3.70068 19.1497 3.01701C18.466 2.33334 17.367 2.33334 15.1667 2.33334H12.8333C10.633 2.33334 9.534 2.33334 8.85033 3.01701C8.16667 3.70068 8.16667 4.79968 8.16667 7.00001V25.6667M24.5 25.6667V13.4167C24.5 11.7775 24.5 10.9585 24.1068 10.3705C23.9366 10.1156 23.7177 9.89679 23.4628 9.72651C22.8748 9.33334 22.0547 9.33334 20.4167 9.33334M3.5 25.6667V13.4167C3.5 11.7775 3.5 10.9585 3.89317 10.3705C4.06345 10.1156 4.28228 9.89679 4.53717 9.72651C5.12517 9.33334 5.94533 9.33334 7.58333 9.33334" stroke="currentColor" stroke-width="1.5"/>
<path d="M14 25.6667V22.1667M11.6666 5.83334H16.3333M11.6666 9.33334H16.3333M11.6666 12.8333H16.3333M11.6666 16.3333H16.3333" stroke="currentColor" stroke-width="1.5" stroke-linecap="round"/>
</svg>
