<svg width="16769" height="12545" viewBox="0 0 16769 12545" fill="none" xmlns="http://www.w3.org/2000/svg">
<path d="M12708.3 1869.67L12813.1 4800.6C12816.3 4889.5 12874.2 4967.15 12958.5 4995.59C12973.9 5000.77 12989.8 5004.19 13005.9 5005.78L13071.3 5012.22C13139.3 5018.91 13207.7 5018.63 13275.6 5011.37L13326.8 5005.9C13342.4 5004.23 13357.8 5000.78 13372.7 4995.63C13454.7 4967.2 13510.3 4890.75 13512.2 4803.98L13547.3 3148.39L13581.6 1870.82C13584 1782.27 13527.2 1702.52 13443 1675.11C13414 1665.66 13384 1658.83 13353.7 1654.83L13274.5 1644.35C13187.4 1632.83 13099.2 1632.83 13012.2 1644.35L12933.1 1654.81C12902.8 1658.83 12872.9 1665.66 12843.8 1675.21C12760.4 1702.64 12705.1 1781.91 12708.3 1869.67Z" fill="#F7CB47"/>
<rect x="12684.5" y="5228.13" width="919.466" height="905.867" rx="292" fill="#F7CB47"/>
<path d="M8950 5272.91V5790.29C8950 5827.22 8988.65 5851.41 9021.86 5835.26L11634.4 4565.23C11655 4555.26 11669.8 4536.48 11674.8 4514.22L11678.4 4498.33C11718.6 4319.17 11717.4 4133.18 11674.7 3954.57C11669.8 3933.83 11655.8 3916.42 11636.5 3907.17L9021.67 2649.68C8988.47 2633.72 8950 2657.91 8950 2694.74V3171.04C8950 3237.25 8988.44 3297.43 9048.5 3325.28L10932.5 4198.69C10955.8 4209.45 10955.7 4242.48 10932.5 4253.17L9049.03 5118.43C8988.68 5146.16 8950 5206.49 8950 5272.91Z" fill="#F7CB47"/>
<path d="M7739.95 2951.77L7815.44 5145.01C7817.63 5208.68 7858.65 5264.48 7918.77 5285.57C7930.23 5289.59 7942.11 5292.25 7954.19 5293.48L7991.88 5297.34C8046.15 5302.9 8100.85 5302.66 8155.07 5296.64L8182.57 5293.58C8194.29 5292.28 8205.81 5289.6 8216.9 5285.6C8275.39 5264.52 8314.83 5209.57 8316.1 5147.42L8341.4 3909.53L8366.05 2953C8367.69 2889.62 8327.86 2832.56 8267.81 2812.24C8246.14 2804.91 8223.83 2799.65 8201.17 2796.53L8187.59 2794.66C8097.55 2782.28 8006.25 2782.28 7916.21 2794.66L7902.59 2796.54C7879.96 2799.65 7857.68 2804.94 7836.07 2812.32C7776.82 2832.57 7737.79 2889.19 7739.95 2951.77Z" fill="#55AE58"/>
<rect x="7723.12" y="5459.07" width="658.878" height="674.928" rx="292" fill="#55AE58"/>
<path d="M5047 5518.43V5856.15C5047 5893.42 5086.3 5917.59 5119.55 5900.78L6969.31 4965.84C6984.87 4957.98 6996.05 4943.51 6999.73 4926.46L7002.29 4914.61C7031.06 4781.46 7030.16 4643.62 6999.68 4510.86C6996.03 4494.96 6985.46 4481.53 6970.88 4474.24L5119.36 3548.47C5086.12 3531.84 5047 3556.02 5047 3593.19V3900.52C5047 3965.8 5084.38 4025.32 5143.19 4053.66L6453.61 4685.29C6476.29 4696.22 6476.23 4728.54 6453.52 4739.39L5143.73 5365.03C5084.63 5393.26 5047 5452.93 5047 5518.43Z" fill="#55AE58"/>
<path d="M4060.02 4022.95L4111.46 5531.26C4112.93 5574.59 4140.78 5612.61 4181.66 5627.08C4189.53 5629.86 4197.7 5631.71 4206.01 5632.56L4231.51 5635.2C4268.46 5639.02 4305.72 5638.86 4342.63 5634.72L4361.2 5632.63C4369.26 5631.73 4377.19 5629.87 4384.81 5627.1C4424.58 5612.63 4451.35 5575.2 4452.21 5532.9L4469.44 4681.75L4486.25 4023.79C4487.35 3980.7 4460.33 3941.89 4419.54 3927.96C4404.67 3922.88 4389.34 3919.24 4373.77 3917.08L4364.77 3915.83C4303.48 3907.32 4241.3 3907.32 4180 3915.83L4170.97 3917.08C4155.43 3919.24 4140.12 3922.9 4125.28 3928.02C4085.04 3941.9 4058.57 3980.41 4060.02 4022.95Z" fill="#404143"/>
<rect x="4048.59" y="5746.31" width="448.488" height="463.686" rx="224.244" fill="#404143"/>
<path d="M2227 5820.21V5993.33C2227 6030.67 2266.45 6054.84 2299.72 6037.87L3535.26 5407.57C3546 5402.09 3553.7 5392.07 3556.22 5380.29L3557.96 5372.14C3577.53 5280.72 3576.92 5186.14 3556.18 5094.98C3553.68 5083.99 3546.41 5074.69 3536.35 5069.61L2299.53 4445.44C2266.27 4428.66 2227 4452.83 2227 4490.08V4642.58C2227 4707.63 2264.13 4766.99 2322.63 4795.45L3167.09 5206.27C3189.64 5217.23 3189.58 5249.38 3167 5260.27L2323.17 5667.08C2264.37 5695.43 2227 5754.94 2227 5820.21Z" fill="#404143"/>
<path d="M2403.21 10971.4H2102.91V9140.3H2367.81L2382.46 9311.2C2436.17 9250.16 2500.86 9202.55 2576.55 9168.37C2652.23 9133.38 2734.83 9115.88 2824.35 9115.88C2938.28 9115.88 3040.01 9143.55 3129.53 9198.89C3219.86 9254.23 3290.66 9329.91 3341.93 9425.94C3394.01 9521.16 3420.05 9629.39 3420.05 9750.65C3420.05 9871.9 3394.01 9980.55 3341.93 10076.6C3290.66 10171.8 3219.86 10247.1 3129.53 10302.4C3040.01 10357.7 2938.28 10385.4 2824.35 10385.4C2740.53 10385.4 2662.81 10370.4 2591.2 10340.2C2519.58 10310.1 2456.92 10267.8 2403.21 10213.3V10971.4ZM2759.65 10114.4C2828.01 10114.4 2888.64 10099 2941.54 10068C2995.25 10036.3 3036.75 9993.16 3066.05 9938.64C3096.16 9883.3 3111.21 9820.23 3111.21 9749.43C3111.21 9678.63 3096.16 9615.96 3066.05 9561.44C3035.94 9506.1 2994.43 9462.97 2941.54 9432.04C2888.64 9400.31 2828.01 9384.44 2759.65 9384.44C2695.36 9384.44 2637.18 9399.09 2585.09 9428.38C2533.01 9456.87 2491.1 9496.34 2459.36 9546.79C2427.62 9596.43 2408.9 9653.4 2403.21 9717.69V9784.83C2408.9 9849.12 2427.21 9906.08 2458.14 9955.73C2489.88 10005.4 2531.79 10044.4 2583.87 10072.9C2635.95 10100.6 2694.55 10114.4 2759.65 10114.4ZM4717.66 10361H4456.43L4439.34 10210.9C4394.58 10266.2 4338.84 10309.3 4272.1 10340.2C4205.37 10370.4 4131.32 10385.4 4049.94 10385.4C3963.67 10385.4 3886.77 10368.7 3819.22 10335.4C3751.68 10301.2 3698.37 10254.8 3659.31 10196.2C3621.06 10137.6 3601.94 10070.9 3601.94 9996.01C3601.94 9917.07 3622.69 9847.9 3664.19 9788.49C3706.51 9728.27 3763.88 9681.07 3836.31 9646.89C3909.55 9612.71 3992.97 9595.62 4086.56 9595.62C4143.52 9595.62 4200.49 9602.13 4257.46 9615.15C4315.24 9628.17 4368.54 9646.48 4417.37 9670.08V9631.02C4417.37 9577.31 4402.72 9530.92 4373.42 9491.86C4344.12 9452.8 4304.66 9422.69 4255.01 9401.53C4205.37 9379.55 4149.63 9368.57 4087.78 9368.57C4031.62 9368.57 3975.47 9378.33 3919.32 9397.87C3863.17 9416.58 3810.68 9444.66 3761.85 9482.09L3676.4 9246.5C3754.53 9203.37 3834.28 9170.81 3915.66 9148.84C3997.85 9126.87 4078.01 9115.88 4156.14 9115.88C4270.88 9115.88 4370.17 9138.67 4453.99 9184.24C4537.81 9229 4602.51 9293.29 4648.08 9377.11C4694.47 9460.12 4717.66 9558.18 4717.66 9671.3V10361ZM4112.19 10143.7C4165.09 10143.7 4213.92 10132.7 4258.68 10110.8C4304.25 10088.8 4341.28 10058.3 4369.76 10019.2C4399.06 9979.33 4414.52 9933.75 4416.15 9882.48V9869.06C4377.9 9841.39 4334.77 9820.23 4286.75 9805.58C4238.74 9790.12 4190.32 9782.39 4141.49 9782.39C4066.62 9782.39 4005.18 9799.48 3957.16 9833.66C3909.15 9867.02 3885.14 9910.97 3885.14 9965.49C3885.14 9998.86 3894.91 10029.4 3914.44 10057C3933.97 10083.9 3960.82 10105.1 3995 10120.5C4030 10136 4069.06 10143.7 4112.19 10143.7ZM5339 10361H5017.95V8481.12H5339V10361ZM5817.51 8816.81C5775.2 8816.81 5739.39 8802.16 5710.09 8772.87C5681.61 8742.75 5667.37 8706.54 5667.37 8664.22C5667.37 8622.72 5681.61 8587.32 5710.09 8558.02C5739.39 8527.91 5775.2 8512.86 5817.51 8512.86C5860.65 8512.86 5896.86 8527.91 5926.16 8558.02C5955.45 8587.32 5970.1 8622.72 5970.1 8664.22C5970.1 8706.54 5955.45 8742.75 5926.16 8772.87C5896.86 8802.16 5860.65 8816.81 5817.51 8816.81ZM5967.66 10361H5667.37V9140.3H5967.66V10361ZM6211.8 10256L6280.16 9994.79C6307.02 10021.6 6340.38 10046.1 6380.26 10068C6420.13 10090 6462.45 10107.5 6507.21 10120.5C6552.78 10132.7 6597.14 10138.8 6640.27 10138.8C6698.05 10138.8 6744.43 10127 6779.43 10103.4C6814.42 10079 6831.92 10047.3 6831.92 10008.2C6831.92 9977.29 6821.34 9951.66 6800.18 9931.31C6779.02 9910.15 6751.35 9891.84 6717.17 9876.38C6682.99 9860.1 6645.56 9844.24 6604.87 9828.77C6551.16 9809.24 6496.63 9786.05 6441.29 9759.19C6385.95 9731.52 6339.57 9695.31 6302.13 9650.55C6265.51 9604.98 6247.2 9544.76 6247.2 9469.89C6247.2 9397.46 6265.51 9334.8 6302.13 9281.9C6339.57 9229 6391.65 9188.31 6458.38 9159.83C6525.11 9130.53 6602.83 9115.88 6691.54 9115.88C6831.51 9115.88 6971.08 9150.88 7110.24 9220.86L7023.57 9467.45C6997.53 9447.91 6965.79 9430.01 6928.35 9413.73C6890.92 9397.46 6852.67 9384.44 6813.61 9374.67C6774.54 9364.91 6739.14 9360.02 6707.41 9360.02C6661.02 9360.02 6623.99 9370.2 6596.32 9390.54C6568.65 9410.89 6554.82 9437.74 6554.82 9471.11C6554.82 9493.89 6562.55 9514.65 6578.01 9533.36C6593.47 9551.27 6617.48 9568.76 6650.03 9585.85C6682.59 9602.94 6724.5 9622.07 6775.77 9643.23C6831.1 9664.39 6886.44 9689.21 6941.78 9717.69C6997.93 9745.36 7044.73 9782.39 7082.16 9828.77C7120.41 9874.35 7139.54 9934.97 7139.54 10010.7C7139.54 10085.5 7119.19 10151 7078.5 10207.2C7038.62 10263.3 6982.47 10307.3 6910.04 10339C6838.43 10370 6754.61 10385.4 6658.58 10385.4C6499.07 10385.4 6350.15 10342.3 6211.8 10256ZM8433.48 10361H8172.25L8155.16 10210.9C8110.4 10266.2 8054.66 10309.3 7987.92 10340.2C7921.19 10370.4 7847.14 10385.4 7765.76 10385.4C7679.49 10385.4 7602.59 10368.7 7535.04 10335.4C7467.5 10301.2 7414.19 10254.8 7375.13 10196.2C7336.88 10137.6 7317.76 10070.9 7317.76 9996.01C7317.76 9917.07 7338.51 9847.9 7380.01 9788.49C7422.33 9728.27 7479.7 9681.07 7552.13 9646.89C7625.38 9612.71 7708.79 9595.62 7802.38 9595.62C7859.34 9595.62 7916.31 9602.13 7973.28 9615.15C8031.06 9628.17 8084.36 9646.48 8133.19 9670.08V9631.02C8133.19 9577.31 8118.54 9530.92 8089.24 9491.86C8059.95 9452.8 8020.48 9422.69 7970.83 9401.53C7921.19 9379.55 7865.45 9368.57 7803.6 9368.57C7747.45 9368.57 7691.29 9378.33 7635.14 9397.87C7578.99 9416.58 7526.5 9444.66 7477.67 9482.09L7392.22 9246.5C7470.35 9203.37 7550.1 9170.81 7631.48 9148.84C7713.67 9126.87 7793.83 9115.88 7871.96 9115.88C7986.7 9115.88 8085.99 9138.67 8169.81 9184.24C8253.63 9229 8318.33 9293.29 8363.9 9377.11C8410.29 9460.12 8433.48 9558.18 8433.48 9671.3V10361ZM7828.01 10143.7C7880.91 10143.7 7929.74 10132.7 7974.5 10110.8C8020.07 10088.8 8057.1 10058.3 8085.58 10019.2C8114.88 9979.33 8130.34 9933.75 8131.97 9882.48V9869.06C8093.72 9841.39 8050.59 9820.23 8002.57 9805.58C7954.56 9790.12 7906.14 9782.39 7857.31 9782.39C7782.44 9782.39 7721 9799.48 7672.98 9833.66C7624.97 9867.02 7600.96 9910.97 7600.96 9965.49C7600.96 9998.86 7610.73 10029.4 7630.26 10057C7649.79 10083.9 7676.64 10105.1 7710.82 10120.5C7745.82 10136 7784.88 10143.7 7828.01 10143.7ZM9969.12 10361H9704.23L9688.36 10190.1C9635.47 10251.1 9571.18 10299.2 9495.49 10334.1C9419.81 10368.3 9337.61 10385.4 9248.91 10385.4C9134.16 10385.4 9031.62 10357.7 8941.29 10302.4C8850.96 10247.1 8779.75 10171.8 8727.67 10076.6C8676.4 9980.55 8650.77 9871.9 8650.77 9750.65C8650.77 9629.39 8676.4 9521.16 8727.67 9425.94C8779.75 9329.91 8850.96 9254.23 8941.29 9198.89C9031.62 9143.55 9134.16 9115.88 9248.91 9115.88C9332.73 9115.88 9410.45 9130.94 9482.06 9161.05C9553.68 9191.16 9615.93 9233.48 9668.83 9288V8529.95H9969.12V10361ZM9314.83 10115.6C9379.93 10115.6 9439.34 10101 9493.05 10071.7C9546.76 10041.6 9589.49 10000.5 9621.22 9948.4C9652.96 9896.32 9668.83 9836.91 9668.83 9770.18V9727.46C9668.83 9661.54 9652.96 9602.94 9621.22 9551.67C9589.49 9499.59 9546.76 9458.9 9493.05 9429.6C9439.34 9399.49 9379.93 9384.44 9314.83 9384.44C9246.47 9384.44 9185.43 9400.71 9131.72 9433.27C9078.01 9465 9035.69 9508.54 9004.77 9563.88C8973.85 9618.41 8958.38 9680.25 8958.38 9749.43C8958.38 9819.41 8973.85 9882.08 9004.77 9937.42C9035.69 9992.75 9078.01 10036.3 9131.72 10068C9185.43 10099.8 9246.47 10115.6 9314.83 10115.6ZM10861.5 10385.4C10736.9 10385.4 10625.5 10357.7 10527 10302.4C10429.3 10247.1 10352 10171.8 10295.1 10076.6C10238.9 9980.55 10210.8 9871.9 10210.8 9750.65C10210.8 9629.39 10238.9 9521.16 10295.1 9425.94C10352 9329.91 10429.3 9254.23 10527 9198.89C10625.5 9143.55 10736.9 9115.88 10861.5 9115.88C10985.2 9115.88 11095.8 9143.55 11193.5 9198.89C11291.1 9254.23 11367.6 9329.91 11423 9425.94C11479.1 9521.16 11507.2 9629.39 11507.2 9750.65C11507.2 9871.9 11479.1 9980.55 11423 10076.6C11367.6 10171.8 11291.1 10247.1 11193.5 10302.4C11095.8 10357.7 10985.2 10385.4 10861.5 10385.4ZM10859 10115.6C10924.1 10115.6 10982.3 10099.8 11033.6 10068C11084.8 10036.3 11125.1 9992.75 11154.4 9937.42C11184.5 9882.08 11199.6 9819.41 11199.6 9749.43C11199.6 9680.25 11184.5 9618.41 11154.4 9563.88C11125.1 9508.54 11084.8 9465 11033.6 9433.27C10982.3 9401.53 10924.1 9385.66 10859 9385.66C10794.7 9385.66 10736.5 9401.53 10684.5 9433.27C10633.2 9465 10592.5 9508.54 10562.4 9563.88C10533.1 9618.41 10518.4 9680.25 10518.4 9749.43C10518.4 9819.41 10533.1 9882.08 10562.4 9937.42C10592.5 9992.75 10633.2 10036.3 10684.5 10068C10736.5 10099.8 10794.7 10115.6 10859 10115.6ZM12856.1 10219.4C12703.9 10330.1 12537.5 10385.4 12356.8 10385.4C12225.8 10385.4 12108.2 10356.9 12004 10300C11899.9 10243 11817.3 10165.3 11756.2 10066.8C11696 9967.53 11665.9 9856.04 11665.9 9732.34C11665.9 9614.34 11693.2 9508.95 11747.7 9416.18C11803 9323.4 11878.3 9250.16 11973.5 9196.45C12069.5 9142.74 12177.8 9115.88 12298.2 9115.88C12423.6 9115.88 12533.4 9145.59 12627.8 9204.99C12723 9263.59 12797.1 9345.38 12850 9450.36C12902.9 9554.52 12929.3 9675.78 12929.3 9814.12V9853.19H11989.4C12004 9908.53 12029.7 9957.35 12066.3 9999.67C12103.7 10042 12150.1 10074.9 12205.5 10098.5C12260.8 10122.1 12323 10133.9 12392.2 10133.9C12522.4 10133.9 12642.9 10091.6 12753.5 10007L12856.1 10219.4ZM11977.2 9677.41H12651C12644.5 9616.37 12625.8 9563.07 12594.9 9517.49C12564.7 9471.92 12525.3 9436.52 12476.4 9411.29C12428.4 9385.25 12374.3 9372.23 12314.1 9372.23C12253.1 9372.23 12198.5 9385.25 12150.5 9411.29C12102.5 9437.33 12063.4 9473.55 12033.3 9519.94C12003.2 9565.51 11984.5 9618 11977.2 9677.41ZM13086.8 10256L13155.2 9994.79C13182 10021.6 13215.4 10046.1 13255.3 10068C13295.1 10090 13337.5 10107.5 13382.2 10120.5C13427.8 10132.7 13472.1 10138.8 13515.3 10138.8C13573 10138.8 13619.4 10127 13654.4 10103.4C13689.4 10079 13706.9 10047.3 13706.9 10008.2C13706.9 9977.29 13696.3 9951.66 13675.2 9931.31C13654 9910.15 13626.4 9891.84 13592.2 9876.38C13558 9860.1 13520.6 9844.24 13479.9 9828.77C13426.2 9809.24 13371.6 9786.05 13316.3 9759.19C13261 9731.52 13214.6 9695.31 13177.1 9650.55C13140.5 9604.98 13122.2 9544.76 13122.2 9469.89C13122.2 9397.46 13140.5 9334.8 13177.1 9281.9C13214.6 9229 13266.7 9188.31 13333.4 9159.83C13400.1 9130.53 13477.8 9115.88 13566.5 9115.88C13706.5 9115.88 13846.1 9150.88 13985.2 9220.86L13898.6 9467.45C13872.5 9447.91 13840.8 9430.01 13803.4 9413.73C13765.9 9397.46 13727.7 9384.44 13688.6 9374.67C13649.5 9364.91 13614.1 9360.02 13582.4 9360.02C13536 9360.02 13499 9370.2 13471.3 9390.54C13443.7 9410.89 13429.8 9437.74 13429.8 9471.11C13429.8 9493.89 13437.5 9514.65 13453 9533.36C13468.5 9551.27 13492.5 9568.76 13525 9585.85C13557.6 9602.94 13599.5 9622.07 13650.8 9643.23C13706.1 9664.39 13761.4 9689.21 13816.8 9717.69C13872.9 9745.36 13919.7 9782.39 13957.2 9828.77C13995.4 9874.35 14014.5 9934.97 14014.5 10010.7C14014.5 10085.5 13994.2 10151 13953.5 10207.2C13913.6 10263.3 13857.5 10307.3 13785 10339C13713.4 10370 13629.6 10385.4 13533.6 10385.4C13374.1 10385.4 13225.1 10342.3 13086.8 10256Z" fill="#7F7F7F"/>
</svg>
