<svg width="64.000000" height="23.900391" viewBox="0 0 64 23.9004" fill="none" xmlns="http://www.w3.org/2000/svg" xmlns:xlink="http://www.w3.org/1999/xlink">
	<defs>
		<clipPath id="clip2_276">
			<rect id="solar:pin-outline" width="14.000000" height="14.000000" transform="translate(0.000000 3.262695)" fill="white" fill-opacity="0"/>
		</clipPath>
	</defs>
	<path id="Pin Post" d="M29.473 0.547852C29.473 0.84375 29.2123 1.09277 28.9017 1.09277C28.5912 1.09277 28.3363 0.84375 28.3363 0.547852C28.3363 0.249023 28.5912 0 28.9017 0C29.2123 0 29.473 0.249023 29.473 0.547852ZM21.957 8.7627L21.1602 8.7627L21.1602 0.0351562L23.9756 0.0351562C25.833 0.0351562 26.7881 1.2041 26.7881 2.72754C26.7881 4.25391 25.833 5.42578 23.9873 5.42578L21.957 5.42578L21.957 8.7627ZM21.957 0.75L21.957 4.71094L23.9668 4.71094C25.335 4.71094 26.0029 3.87012 26.0029 2.72754C26.0029 1.58203 25.335 0.75 23.9551 0.75L21.957 0.75ZM33.8289 2.82715C32.7977 2.82715 32.0477 3.53027 32.0477 4.67285L32.0477 8.7627L31.2889 8.7627L31.2889 2.21777L32.0242 2.21777L32.0242 3.24316L32.0946 3.24316C32.3992 2.5752 33.0613 2.13281 34.0194 2.13281C35.3406 2.13281 36.2401 2.9707 36.2401 4.52344L36.2401 8.7627L35.4813 8.7627L35.4813 4.57031C35.4813 3.50098 34.8338 2.82715 33.8289 2.82715ZM29.2767 8.7627L28.515 8.7627L28.515 2.21777L29.2767 2.21777L29.2767 8.7627ZM21.957 23.7627L21.1602 23.7627L21.1602 15.0352L23.9756 15.0352C25.833 15.0352 26.7881 16.2041 26.7881 17.7275C26.7881 19.2539 25.833 20.4258 23.9873 20.4258L21.957 20.4258L21.957 23.7627ZM42.8747 17.2178L44.2605 17.2178L44.2605 17.877L42.8747 17.877L42.8747 22.0547C42.8747 22.875 43.3493 23.1182 43.865 23.1182C44.0642 23.1182 44.199 23.0889 44.3074 23.0596L44.4685 23.7451C44.3249 23.8008 44.1111 23.8594 43.7947 23.8594C42.9568 23.8594 42.113 23.3027 42.113 22.2334L42.113 17.877L41.1374 17.877L41.1374 17.2178L42.113 17.2178L42.113 15.6504L42.8747 15.6504L42.8747 17.2178ZM21.957 15.75L21.957 19.7109L23.9668 19.7109C25.335 19.7109 26.0029 18.8701 26.0029 17.7275C26.0029 16.582 25.335 15.75 23.9551 15.75L21.957 15.75ZM33.8609 20.5195C33.8609 22.5146 32.6773 23.9004 30.981 23.9004C29.2847 23.9004 28.1011 22.5146 28.1011 20.5195C28.1011 18.5127 29.2847 17.127 30.981 17.127C32.6773 17.127 33.8609 18.5127 33.8609 20.5195ZM37.7116 17.127C38.9069 17.127 39.6071 17.707 39.9264 18.6533L39.2321 18.8496C39.027 18.2607 38.5934 17.7979 37.7116 17.7979C36.8268 17.7979 36.194 18.2607 36.194 18.9258C36.194 19.4941 36.5719 19.8223 37.3864 20.0244L38.3737 20.2676C39.4694 20.5371 40.0202 21.1201 40.0202 21.9932C40.0202 23.1064 39.0299 23.9004 37.5914 23.9004C36.3082 23.9004 35.444 23.3057 35.2125 22.2158L35.942 22.0371C36.1237 22.8135 36.6832 23.2178 37.5768 23.2178C38.5846 23.2178 39.235 22.7109 39.235 22.0283C39.235 21.5039 38.8893 21.1348 38.1715 20.9619L37.1022 20.707C35.9625 20.4346 35.4293 19.8369 35.4293 18.9609C35.4293 17.8828 36.3903 17.127 37.7116 17.127ZM28.8628 20.5195C28.8628 21.9844 29.6216 23.2031 30.981 23.2031C32.3404 23.2031 33.0992 21.9844 33.0992 20.5195C33.0992 19.0547 32.3404 17.8184 30.981 17.8184C29.6216 17.8184 28.8628 19.0547 28.8628 20.5195Z" fill="#000000" fill-opacity="1.000000" fill-rule="evenodd"/>
	<rect id="solar:pin-outline" width="14.000000" height="14.000000" transform="translate(0.000000 3.262695)" fill="#FFFFFF" fill-opacity="0"/>
	<g clip-path="url(#clip2_276)">
		<path id="Vector" d="M9.6104 5.81476L11.4607 7.66743C12.0487 8.25543 12.5247 8.73201 12.8316 9.14618C13.1471 9.57201 13.3513 10.0212 13.2405 10.5328C13.1296 11.0455 12.7586 11.3693 12.2955 11.6265C11.8446 11.8768 11.214 12.1136 10.4364 12.4058L9.28314 12.8393C8.8194 13.0131 8.69339 13.0673 8.59947 13.1484C8.55281 13.1893 8.51022 13.2359 8.47348 13.2867C8.40114 13.3876 8.35857 13.5183 8.22731 13.996L8.21973 14.0223C8.08673 14.507 7.97647 14.9072 7.85573 15.2076C7.73323 15.5127 7.56815 15.8014 7.27122 15.9712C7.06512 16.0888 6.83186 16.1505 6.59456 16.1503C6.25215 16.1503 5.96573 15.9799 5.70848 15.7758C5.45531 15.5739 5.16248 15.2799 4.80722 14.9241L3.88089 13.9978L1.47639 16.4052C1.39439 16.4873 1.28313 16.5335 1.16705 16.5337C1.05099 16.5338 0.939621 16.4878 0.857483 16.4058C0.77533 16.3238 0.729111 16.2125 0.729004 16.0964C0.728897 15.9804 0.774902 15.869 0.856888 15.7868L3.26256 13.3788L2.36714 12.4823C2.01422 12.1293 1.72314 11.8377 1.52248 11.5857C1.31889 11.3302 1.15031 11.0455 1.14798 10.706C1.14665 10.4641 1.20967 10.2261 1.33057 10.0165C1.49973 9.72193 1.78673 9.55801 2.09006 9.4361C2.38873 9.31651 2.78598 9.20685 3.26723 9.07443L3.29347 9.06684C3.7718 8.93501 3.90306 8.89185 4.00339 8.81951C4.05589 8.78218 4.10255 8.73843 4.14456 8.69001C4.22507 8.59493 4.27873 8.46835 4.44965 8.00168L4.86731 6.86068C5.15607 6.07376 5.38939 5.43618 5.63731 4.98118C5.89223 4.51276 6.21481 4.13651 6.72931 4.02334C7.2438 3.9096 7.69473 4.11551 8.12289 4.43285C8.53822 4.74201 9.01831 5.2221 9.6104 5.81476ZM7.60081 5.13518C7.24965 4.87385 7.06357 4.84468 6.91772 4.87676C6.7719 4.90884 6.61497 5.01385 6.40556 5.39884C6.19264 5.78968 5.98032 6.36601 5.67639 7.19609L5.27098 8.30268L5.24765 8.36568C5.11172 8.73901 5.00615 9.02835 4.81015 9.2576C4.72302 9.3599 4.62393 9.45136 4.51498 9.53001C4.26997 9.70618 3.97423 9.78726 3.59039 9.89285L3.52623 9.91035C3.01173 10.0521 2.66289 10.1495 2.41614 10.2487C2.16823 10.3478 2.10873 10.4178 2.08832 10.4528C2.04501 10.528 2.02248 10.6134 2.02298 10.7002C2.02298 10.741 2.04048 10.8314 2.20731 11.0408C2.37297 11.2491 2.62848 11.5058 3.00531 11.8832L5.40689 14.2865C5.78606 14.6668 6.04448 14.9241 6.25389 15.0915C6.4639 15.2583 6.5549 15.2753 6.59514 15.2753C6.68025 15.2755 6.76393 15.2533 6.83781 15.2111C6.87282 15.1913 6.94339 15.1318 7.04373 14.8821C7.14348 14.633 7.24089 14.2813 7.38322 13.7638L7.40073 13.6997C7.50572 13.3164 7.58739 13.0207 7.76239 12.7763C7.83888 12.6698 7.92758 12.5727 8.02664 12.4869C8.25415 12.2903 8.54114 12.1824 8.91272 12.0436L8.97514 12.0203L10.0934 11.6003C10.9147 11.2911 11.4835 11.0764 11.8702 10.8618C12.25 10.6512 12.3538 10.4943 12.3853 10.3484C12.4168 10.202 12.3871 10.0159 12.1286 9.6671C11.865 9.31126 11.4356 8.88018 10.8156 8.25951L9.01773 6.45934C8.39297 5.83401 7.95839 5.40118 7.60081 5.13518Z" fill="#31BB6B" fill-opacity="1.000000" fill-rule="evenodd"/>
	</g>
</svg>
