<svg width="26" height="26" viewBox="0 0 26 26" fill="none" xmlns="http://www.w3.org/2000/svg">
    <path d="M9.48838 7.83245C9.02413 7.50735 8.67606 7.04226 8.49506 6.50518C8.31406 5.9681 8.30962 5.3872 8.48239 4.84741C8.65516 4.30763 8.99609 3.83727 9.45531 3.50512C9.91454 3.17296 10.468 2.99642 11.0347 3.00132C11.6015 3.00622 12.1518 3.19229 12.6052 3.53233C13.0586 3.87238 13.3913 4.34855 13.5548 4.89124C13.7182 5.43393 13.7037 6.01467 13.5135 6.54854C13.3232 7.08241 12.9671 7.54142 12.4973 7.85845M4.40917 13.8921C4.75013 13.4393 5.22697 13.1075 5.76999 12.9452C6.31301 12.7829 6.89371 12.7985 7.4272 12.9899C7.96069 13.1812 8.41898 13.5382 8.73507 14.0086C9.05115 14.479 9.20845 15.0383 9.18396 15.6045C9.15948 16.1707 8.95449 16.7143 8.59898 17.1557C8.24346 17.5971 7.75607 17.9131 7.20805 18.0577C6.66004 18.2023 6.08015 18.1677 5.55317 17.9591C5.0262 17.7505 4.57977 17.3788 4.27917 16.8983" stroke="currentColor" stroke-linecap="round" stroke-linejoin="round"/>
    <path d="M9.48838 7.83252C9.66713 8.1651 9.63247 8.73169 8.78963 8.83244H3.56255V13.2958C3.54707 13.4019 3.56132 13.5103 3.60372 13.6088C3.64611 13.7073 3.715 13.7922 3.80272 13.8539C3.89044 13.9157 3.99356 13.9519 4.10062 13.9585C4.20768 13.9652 4.31449 13.942 4.40918 13.8916M4.27972 16.8979C4.1918 16.8569 4.0941 16.8416 3.99787 16.8538C3.90165 16.8659 3.81081 16.905 3.73585 16.9666C3.66089 17.0281 3.60484 17.1096 3.57418 17.2016C3.54352 17.2936 3.53949 17.3924 3.56255 17.4866V21.7821H14.6667" stroke="currentColor" stroke-linecap="round" stroke-linejoin="round"/>
    <path d="M10.1866 18.662L11.5689 21.067C13.2308 20.0845 14.9283 21.0714 14.9283 22.9992H17.6892C17.6892 21.0714 19.2265 20.1749 21.0562 21.0714L22.4391 18.661C20.7334 17.6822 20.7323 15.7695 22.4391 14.788L21.0562 12.3847C19.4123 13.3607 17.6892 12.3868 17.6892 10.4498H14.9283C14.9283 12.3868 13.2313 13.3607 11.5678 12.3868L10.1866 14.7447C11.9351 15.7685 11.8333 17.7157 10.1866 18.662Z" stroke="currentColor" stroke-linecap="round" stroke-linejoin="round"/>
    <path d="M16.3128 18.9821C17.5597 18.9821 18.5705 17.9713 18.5705 16.7245C18.5705 15.4776 17.5597 14.4668 16.3128 14.4668C15.066 14.4668 14.0552 15.4776 14.0552 16.7245C14.0552 17.9713 15.066 18.9821 16.3128 18.9821Z" stroke="currentColor" stroke-linecap="round" stroke-linejoin="round"/>
    <path d="M12.4973 7.85852C12.2438 8.06219 12.1832 8.72952 13.1398 8.83244H17.6892V10.4499" stroke="currentColor" stroke-linecap="round" stroke-linejoin="round"/>
</svg>
