<svg width="12.000000" height="12.000000" viewBox="0 0 12 12" fill="none" xmlns="http://www.w3.org/2000/svg" xmlns:xlink="http://www.w3.org/1999/xlink">
	<defs/>
	<path id="Vector" d="M11.003 4.38983L2.60342 0.188629C2.27193 0.0235596 1.89763 -0.0351868 1.53154 0.0203552C1.16545 0.0758972 0.825394 0.243042 0.557732 0.498962C0.29007 0.754913 0.107826 1.08722 0.0358582 1.45053C-0.0361176 1.81387 0.0056839 2.19058 0.155556 2.5293L1.59547 5.7522C1.62815 5.83014 1.64497 5.91379 1.64497 5.99829C1.64497 6.08276 1.62815 6.16644 1.59547 6.24435L0.155556 9.46729C0.033577 9.74139 -0.0179825 10.0416 0.00554657 10.3408C0.0290833 10.6399 0.126961 10.9283 0.290298 11.18C0.453629 11.4316 0.677238 11.6385 0.940804 11.7817C1.20437 11.9249 1.49953 11.9999 1.79946 12C2.08039 11.9972 2.35712 11.9316 2.60942 11.808L11.009 7.60675C11.3069 7.45682 11.5573 7.22702 11.7323 6.94299C11.9073 6.659 12 6.33191 12 5.99829C12 5.66464 11.9073 5.33759 11.7323 5.05356C11.5573 4.76953 11.3069 4.53976 11.009 4.38983L11.003 4.38983ZM10.469 6.53244L2.06945 10.7336C1.95915 10.7866 1.8353 10.8046 1.7145 10.7852C1.5937 10.7657 1.48173 10.7098 1.39359 10.6249C1.30546 10.54 1.24538 10.4302 1.22141 10.3102C1.19745 10.1902 1.21073 10.0657 1.25949 9.9534L2.69341 6.7305C2.71198 6.68744 2.728 6.64337 2.74142 6.59845L6.87519 6.59845C7.03431 6.59845 7.18691 6.53522 7.29943 6.42267C7.41194 6.31012 7.47516 6.15747 7.47516 5.99829C7.47516 5.83911 7.41194 5.68646 7.29943 5.57388C7.18691 5.46133 7.03431 5.3981 6.87519 5.3981L2.74142 5.3981C2.728 5.35321 2.71198 5.30911 2.69341 5.26608L1.25949 2.04315C1.21073 1.93088 1.19745 1.8064 1.22141 1.68637C1.24538 1.56638 1.30546 1.45654 1.39359 1.37164C1.48173 1.28674 1.5937 1.23083 1.7145 1.2114C1.8353 1.19196 1.95915 1.20996 2.06945 1.26291L10.469 5.46414C10.5673 5.5145 10.6497 5.591 10.7073 5.68527C10.7649 5.77951 10.7954 5.88782 10.7954 5.99829C10.7954 6.10873 10.7649 6.21707 10.7073 6.31131C10.6497 6.40555 10.5673 6.48206 10.469 6.53244Z" fill="#FFFFFF" fill-opacity="1.000000" fill-rule="nonzero"/>
</svg>
