<svg width="20.000000" height="20.000000" viewBox="0 0 14 14" fill="none" xmlns="http://www.w3.org/2000/svg" xmlns:xlink="http://www.w3.org/1999/xlink">
	<defs>
		<clipPath id="clip2_272">
			<rect id="material-symbols:report-outline" width="14.000000" height="14.000000" fill="white" fill-opacity="0"/>
		</clipPath>
	</defs>
	<rect id="material-symbols:report-outline" width="14.000000" height="14.000000" fill="#FFFFFF" fill-opacity="0"/>
	<g clip-path="url(#clip2_272)">
		<path id="Vector" d="M7 9.91667C7.16528 9.91667 7.30391 9.86067 7.41592 9.74866C7.52792 9.63667 7.58372 9.49822 7.58333 9.33333C7.58333 9.16806 7.52733 9.02942 7.41533 8.91742C7.30333 8.80542 7.16489 8.74961 7 8.75C6.83472 8.75 6.69609 8.806 6.58408 8.918C6.47208 9.03 6.41628 9.16845 6.41667 9.33333C6.41667 9.49861 6.47267 9.63725 6.58467 9.74925C6.69667 9.86125 6.83511 9.91705 7 9.91667ZM6.41667 7.58333L7.58333 7.58333L7.58333 4.08333L6.41667 4.08333L6.41667 7.58333ZM4.8125 12.25L1.75 9.1875L1.75 4.8125L4.8125 1.75L9.1875 1.75L12.25 4.8125L12.25 9.1875L9.1875 12.25L4.8125 12.25ZM5.30833 11.0833L8.69167 11.0833L11.0833 8.69167L11.0833 5.30833L8.69167 2.91667L5.30833 2.91667L2.91667 5.30833L2.91667 8.69167L5.30833 11.0833Z" fill="#FEBC59" fill-opacity="1.000000" fill-rule="nonzero"/>
	</g>
</svg>
