<svg width="22" height="22" viewBox="0 0 22 22" fill="none" xmlns="http://www.w3.org/2000/svg">
<g clip-path="url(#clip0_308_420)">
<path d="M2.2 1.46667H19.8V0H2.2V1.46667ZM20.5333 2.2V19.8H22V2.2H20.5333ZM19.8 20.5333H2.2V22H19.8V20.5333ZM1.46667 19.8V2.2H0V19.8H1.46667ZM2.2 20.5333C2.00551 20.5333 1.81898 20.4561 1.68146 20.3185C1.54393 20.181 1.46667 19.9945 1.46667 19.8H0C0 20.3835 0.231785 20.9431 0.644365 21.3556C1.05695 21.7682 1.61652 22 2.2 22V20.5333ZM20.5333 19.8C20.5333 19.9945 20.4561 20.181 20.3185 20.3185C20.181 20.4561 19.9945 20.5333 19.8 20.5333V22C20.3835 22 20.9431 21.7682 21.3556 21.3556C21.7682 20.9431 22 20.3835 22 19.8H20.5333ZM19.8 1.46667C19.9945 1.46667 20.181 1.54393 20.3185 1.68146C20.4561 1.81898 20.5333 2.00551 20.5333 2.2H22C22 1.61652 21.7682 1.05695 21.3556 0.644365C20.9431 0.231785 20.3835 0 19.8 0V1.46667ZM2.2 0C1.61652 0 1.05695 0.231785 0.644365 0.644365C0.231785 1.05695 0 1.61652 0 2.2H1.46667C1.46667 2.00551 1.54393 1.81898 1.68146 1.68146C1.81898 1.54393 2.00551 1.46667 2.2 1.46667V0ZM11 17.6C11.1217 17.6 11.2435 17.5956 11.3637 17.5868L11.2611 16.1245C11.1742 16.1305 11.0871 16.1334 11 16.1333V17.6ZM9.79293 17.4563C10.1801 17.5501 10.5849 17.6 11 17.6V16.1333C10.7023 16.1333 10.4133 16.0981 10.1361 16.0307L9.79293 17.4563ZM10.1361 16.0307C8.71493 15.6889 7.34947 14.718 5.78013 13.7045C4.28853 12.7409 2.59747 11.7333 0.733333 11.7333V13.2C2.10907 13.2 3.4584 13.9509 4.9852 14.9365C6.4328 15.8723 8.06373 17.0383 9.79293 17.4563L10.1361 16.0307ZM11.3637 17.5868C13.3965 17.4445 15.3237 16.2272 17.0324 15.1932C18.8364 14.1035 20.4189 13.2 22 13.2V11.7333C19.9364 11.7333 17.9931 12.8979 16.2727 13.9377C14.4584 15.0363 12.8641 16.0116 11.2611 16.1231L11.3637 17.5868Z" fill="current" />
</g>
<defs>
<clipPath id="clip0_308_420">
<rect width="22" height="22" fill="current"/>
</clipPath>
</defs>
</svg>
