<svg width="24" height="24" viewBox="0 0 24 24" fill="none" xmlns="http://www.w3.org/2000/svg">
<path d="M21.0525 15.75L16.5 11.25L21.0525 6.75L22.125 7.8075L18.645 11.25L22.125 14.6925L21.0525 15.75ZM16.5 22.5H15V18.75C15 17.7554 14.6049 16.8016 13.9017 16.0983C13.1984 15.3951 12.2446 15 11.25 15H6.75C5.75544 15 4.80161 15.3951 4.09835 16.0983C3.39509 16.8016 3 17.7554 3 18.75V22.5H1.5V18.75C1.5 17.3576 2.05312 16.0223 3.03769 15.0377C4.02226 14.0531 5.35761 13.5 6.75 13.5H11.25C12.6424 13.5 13.9777 14.0531 14.9623 15.0377C15.9469 16.0223 16.5 17.3576 16.5 18.75V22.5ZM9 3C9.74168 3 10.4667 3.21993 11.0834 3.63199C11.7001 4.04404 12.1807 4.62971 12.4645 5.31494C12.7484 6.00016 12.8226 6.75416 12.6779 7.48159C12.5333 8.20902 12.1761 8.8772 11.6517 9.40165C11.1272 9.9261 10.459 10.2833 9.73159 10.4279C9.00416 10.5726 8.25016 10.4984 7.56494 10.2145C6.87971 9.93072 6.29404 9.45007 5.88199 8.83339C5.46993 8.2167 5.25 7.49168 5.25 6.75C5.25 5.75544 5.64509 4.80161 6.34835 4.09835C7.05161 3.39509 8.00544 3 9 3ZM9 1.5C7.96165 1.5 6.94661 1.80791 6.08326 2.38478C5.2199 2.96166 4.54699 3.7816 4.14963 4.74091C3.75227 5.70022 3.6483 6.75582 3.85088 7.77422C4.05345 8.79262 4.55346 9.72808 5.28769 10.4623C6.02191 11.1965 6.95738 11.6966 7.97578 11.8991C8.99418 12.1017 10.0498 11.9977 11.0091 11.6004C11.9684 11.203 12.7883 10.5301 13.3652 9.66674C13.9421 8.80339 14.25 7.78835 14.25 6.75C14.25 5.35761 13.6969 4.02226 12.7123 3.03769C11.7277 2.05312 10.3924 1.5 9 1.5Z" fill="current"/>
</svg>
