<svg width="24" height="24" viewBox="0 0 24 24" fill="none" xmlns="http://www.w3.org/2000/svg">
    <path d="M12 15C13.6569 15 15 13.6569 15 12C15 10.3431 13.6569 9 12 9C10.3431 9 9 10.3431 9 12C9 13.6569 10.3431 15 12 15Z" stroke="currentColor" stroke-width="1.5"/>
    <path d="M13.765 2.152C13.398 2 12.932 2 12 2C11.068 2 10.602 2 10.235 2.152C9.9922 2.25251 9.77158 2.3999 9.58575 2.58572C9.39992 2.77155 9.25254 2.99218 9.15202 3.235C9.06002 3.458 9.02302 3.719 9.00902 4.098C9.00279 4.37199 8.92702 4.6399 8.78884 4.87657C8.65065 5.11324 8.45457 5.31091 8.21902 5.451C7.97992 5.58504 7.71067 5.6561 7.43656 5.6575C7.16245 5.6589 6.89248 5.59059 6.65202 5.459C6.31602 5.281 6.07302 5.183 5.83202 5.151C5.30634 5.08187 4.77472 5.22431 4.35402 5.547C4.04002 5.79 3.80602 6.193 3.34002 7C2.87402 7.807 2.64002 8.21 2.58902 8.605C2.55466 8.86545 2.57194 9.13012 2.63989 9.38389C2.70784 9.63767 2.82511 9.87556 2.98502 10.084C3.13302 10.276 3.34002 10.437 3.66102 10.639C4.13402 10.936 4.43802 11.442 4.43802 12C4.43802 12.558 4.13402 13.064 3.66102 13.36C3.34002 13.563 3.13202 13.724 2.98502 13.916C2.82511 14.1244 2.70784 14.3623 2.63989 14.6161C2.57194 14.8699 2.55466 15.1345 2.58902 15.395C2.64102 15.789 2.87402 16.193 3.33902 17C3.80602 17.807 4.03902 18.21 4.35402 18.453C4.56246 18.6129 4.80036 18.7302 5.05413 18.7981C5.3079 18.8661 5.57257 18.8834 5.83302 18.849C6.07302 18.817 6.31602 18.719 6.65202 18.541C6.89248 18.4094 7.16245 18.3411 7.43656 18.3425C7.71067 18.3439 7.97992 18.415 8.21902 18.549C8.70202 18.829 8.98902 19.344 9.00902 19.902C9.02302 20.282 9.05902 20.542 9.15202 20.765C9.25254 21.0078 9.39992 21.2284 9.58575 21.4143C9.77158 21.6001 9.9922 21.7475 10.235 21.848C10.602 22 11.068 22 12 22C12.932 22 13.398 22 13.765 21.848C14.0078 21.7475 14.2285 21.6001 14.4143 21.4143C14.6001 21.2284 14.7475 21.0078 14.848 20.765C14.94 20.542 14.977 20.282 14.991 19.902C15.011 19.344 15.298 18.828 15.781 18.549C16.0201 18.415 16.2894 18.3439 16.5635 18.3425C16.8376 18.3411 17.1076 18.4094 17.348 18.541C17.684 18.719 17.927 18.817 18.167 18.849C18.4275 18.8834 18.6921 18.8661 18.9459 18.7981C19.1997 18.7302 19.4376 18.6129 19.646 18.453C19.961 18.211 20.194 17.807 20.66 17C21.126 16.193 21.36 15.79 21.411 15.395C21.4454 15.1345 21.4281 14.8699 21.3602 14.6161C21.2922 14.3623 21.1749 14.1244 21.015 13.916C20.867 13.724 20.66 13.563 20.339 13.361C20.1048 13.2186 19.9105 13.019 19.7746 12.7809C19.6387 12.5428 19.5655 12.2741 19.562 12C19.562 11.442 19.866 10.936 20.339 10.64C20.66 10.437 20.868 10.276 21.015 10.084C21.1749 9.87556 21.2922 9.63767 21.3602 9.38389C21.4281 9.13012 21.4454 8.86545 21.411 8.605C21.359 8.211 21.126 7.807 20.661 7C20.194 6.193 19.961 5.79 19.646 5.547C19.4376 5.38709 19.1997 5.26981 18.9459 5.20187C18.6921 5.13392 18.4275 5.11664 18.167 5.151C17.927 5.183 17.684 5.281 17.347 5.459C17.1067 5.59042 16.8369 5.65862 16.563 5.65722C16.2891 5.65582 16.02 5.58486 15.781 5.451C15.5455 5.31091 15.3494 5.11324 15.2112 4.87657C15.073 4.6399 14.9973 4.37199 14.991 4.098C14.977 3.718 14.941 3.458 14.848 3.235C14.7475 2.99218 14.6001 2.77155 14.4143 2.58572C14.2285 2.3999 14.0078 2.25251 13.765 2.152Z" stroke="currentColor" stroke-width="1.5"/>
</svg>
