<svg width="20.000000" height="20.000000" viewBox="0 0 14 14" fill="none" xmlns="http://www.w3.org/2000/svg" xmlns:xlink="http://www.w3.org/1999/xlink">
	<defs>
		<clipPath id="clip2_268">
			<rect id="tabler:share" width="14.000000" height="14.000000" fill="white" fill-opacity="0"/>
		</clipPath>
	</defs>
	<rect id="tabler:share" width="14.000000" height="14.000000" fill="#FFFFFF" fill-opacity="0"/>
	<g clip-path="url(#clip2_268)">
		<path id="Vector" d="M2.26256 8.23743C2.59076 8.56563 3.03587 8.75 3.5 8.75C3.96413 8.75 4.40924 8.56563 4.73744 8.23743C5.06563 7.90925 5.25 7.46413 5.25 7C5.25 6.53587 5.06563 6.09075 4.73744 5.76257C4.40924 5.43437 3.96413 5.25 3.5 5.25C3.03587 5.25 2.59076 5.43437 2.26256 5.76257C1.93437 6.09075 1.75 6.53587 1.75 7C1.75 7.46413 1.93437 7.90925 2.26256 8.23743ZM9.26256 4.73744C9.59074 5.06563 10.0359 5.25 10.5 5.25C10.9641 5.25 11.4092 5.06563 11.7374 4.73744C12.0656 4.40925 12.25 3.96413 12.25 3.5C12.25 3.03587 12.0656 2.59075 11.7374 2.26256C11.4092 1.93438 10.9641 1.75 10.5 1.75C10.0359 1.75 9.59074 1.93438 9.26256 2.26256C8.93437 2.59075 8.75 3.03587 8.75 3.5C8.75 3.96413 8.93437 4.40925 9.26256 4.73744ZM9.26256 11.7374C9.59074 12.0656 10.0359 12.25 10.5 12.25C10.9641 12.25 11.4092 12.0656 11.7374 11.7374C12.0656 11.4092 12.25 10.9641 12.25 10.5C12.25 10.0359 12.0656 9.59075 11.7374 9.26257C11.4092 8.93437 10.9641 8.75 10.5 8.75C10.0359 8.75 9.59074 8.93437 9.26256 9.26257C8.93437 9.59075 8.75 10.0359 8.75 10.5C8.75 10.9641 8.93437 11.4092 9.26256 11.7374ZM5.075 6.24167L8.925 4.25834M5.075 7.75833L8.925 9.74167" stroke="#1DA1F2" stroke-opacity="1.000000" stroke-width="2.000000" stroke-linejoin="round"/>
	</g>
</svg>
