<svg width="3.125000" height="13.747070" viewBox="0 0 3.125 13.7471" fill="none" xmlns="http://www.w3.org/2000/svg" xmlns:xlink="http://www.w3.org/1999/xlink">
	<defs/>
	<path id="Vector" d="M1.5625 0.000495911C1.96277 -0.0096817 2.35101 0.137985 2.64337 0.411621C2.93573 0.685257 3.1087 1.0629 3.125 1.46299C3.11853 1.66165 3.073 1.85709 2.99097 2.03813C2.90894 2.21918 2.79199 2.38227 2.64685 2.5181C2.50177 2.65392 2.3313 2.75982 2.14526 2.82972C1.95917 2.89963 1.76117 2.93217 1.5625 2.92549C1.36383 2.93217 1.16583 2.89963 0.979736 2.82972C0.793701 2.75982 0.62323 2.65392 0.478149 2.5181C0.333008 2.38227 0.216064 2.21918 0.134033 2.03813C0.052002 1.85709 0.00646973 1.66165 0 1.46299C0.0162964 1.0629 0.18927 0.685257 0.481628 0.411621C0.773987 0.137985 1.16223 -0.0096817 1.5625 0.000495911ZM1.5625 10.8255C1.84668 10.845 2.11902 10.947 2.34601 11.1191C2.573 11.2912 2.74481 11.5258 2.84033 11.7941C2.93585 12.0625 2.95093 12.3529 2.88367 12.6297C2.81647 12.9065 2.66986 13.1577 2.46191 13.3523C2.25397 13.547 1.99365 13.6767 1.71301 13.7254C1.43237 13.7742 1.14362 13.74 0.882141 13.627C0.620667 13.514 0.397949 13.327 0.241211 13.0892C0.0844727 12.8513 0.000671387 12.5728 0 12.288C0.00646973 12.0893 0.052002 11.8939 0.134033 11.7129C0.216064 11.5318 0.333008 11.3687 0.478149 11.2329C0.62323 11.0971 0.793701 10.9912 0.979736 10.9213C1.16583 10.8514 1.36383 10.8188 1.5625 10.8255ZM1.5625 5.41299C1.95038 5.41299 2.32239 5.56708 2.59662 5.84135C2.87091 6.11562 3.02502 6.48762 3.02502 6.8755C3.02502 7.26337 2.87091 7.63537 2.59662 7.90964C2.32239 8.18391 1.95038 8.338 1.5625 8.338C1.17462 8.338 0.802612 8.18391 0.528381 7.90964C0.254089 7.63537 0.0999756 7.26337 0.0999756 6.8755C0.0999756 6.48762 0.254089 6.11562 0.528381 5.84135C0.802612 5.56708 1.17462 5.41299 1.5625 5.41299Z" fill="#000000" fill-opacity="1.000000" fill-rule="nonzero"/>
</svg>
