<svg fill="none" viewBox="-100 -100 1200.00 1200.00" xmlns="http://www.w3.org/2000/svg" stroke="#000000" stroke-width="18"><g id="SVGRepo_bgCarrier" stroke-width="0"></g><g id="SVGRepo_tracerCarrier" stroke-linecap="round" stroke-linejoin="round" stroke="#CCCCCC" stroke-width="26"></g><g id="SVGRepo_iconCarrier"><path d="M767 336H233q-12 0-21 9t-9 21l38 505q1 13 12 21.5t30 8.5h434q18 0 29-8.5t13-21.5l38-505q0-12-9-21t-21-9zM344 841q-10 0-18-9t-8-21l-26-386q0-12 9-20.5t21-8.5 21 8.5 9 20.5l18 386q0 12-7.5 21t-18.5 9zm182-31q0 13-7.5 22t-18.5 9-18.5-9-7.5-22l-4-385q0-12 9-20.5t21-8.5 21 8.5 9 20.5zm156 1q0 12-8 21t-18 9q-11 0-18.5-9t-7.5-21l18-386q0-12 9-20.5t21-8.5 21 8.5 9 20.5zm101-605l-179-30q-12-2-15-15l-8-33q-4-20-14-26-6-3-22-3h-90q-16 0-23 3-10 6-13 26l-8 33q-2 13-15 15l-179 30q-19 3-31.5 14.5T173 249v28q0 9 6.5 15t15.5 6h610q9 0 15.5-6t6.5-15v-28q0-17-12.5-28.5T783 206z"></path></g></svg>