<svg width="32" height="36" viewBox="0 0 32 36" fill="none" xmlns="http://www.w3.org/2000/svg">
<path d="M27.0421 19.175C26.9803 19.226 26.9099 19.263 26.8351 19.2841C26.7602 19.3052 26.6823 19.3098 26.6059 19.2978C26.5294 19.2858 26.4558 19.2574 26.3893 19.2141C26.3228 19.1709 26.2647 19.1137 26.2184 19.0458C25.7274 18.3206 25.0883 17.7323 24.3525 17.3281C23.6167 16.9239 22.8048 16.7152 21.9822 16.7187C21.8262 16.7187 21.6765 16.6506 21.5662 16.5294C21.4558 16.4082 21.3939 16.2438 21.3939 16.0723C21.3939 15.9009 21.4558 15.7365 21.5662 15.6153C21.6765 15.494 21.8262 15.4259 21.9822 15.4259C22.459 15.4258 22.9263 15.2788 23.3309 15.0016C23.7355 14.7244 24.0612 14.328 24.271 13.8576C24.4809 13.3872 24.5665 12.8616 24.518 12.3404C24.4696 11.8193 24.2891 11.3235 23.9971 10.9094C23.705 10.4952 23.3132 10.1794 22.8659 9.9977C22.4187 9.816 21.9341 9.77574 21.467 9.88148C21 9.98722 20.5694 10.2347 20.224 10.5959C19.8786 10.957 19.6323 11.4174 19.5131 11.9246C19.4741 12.0906 19.3766 12.2328 19.2422 12.3199C19.1078 12.407 18.9474 12.4318 18.7963 12.3889C18.6452 12.3461 18.5157 12.239 18.4365 12.0914C18.3572 11.9437 18.3346 11.7674 18.3736 11.6014C18.5215 10.9695 18.8047 10.3856 19.1997 9.89828C19.5947 9.411 20.0899 9.0345 20.6442 8.80016C21.1985 8.56582 21.7957 8.48043 22.3861 8.5511C22.9765 8.62178 23.543 8.84647 24.0383 9.20645C24.5336 9.56643 24.9435 10.0513 25.2337 10.6206C25.5238 11.1899 25.686 11.8271 25.7065 12.4792C25.7271 13.1313 25.6055 13.7793 25.3518 14.3693C25.0982 14.9593 24.7198 15.4741 24.2484 15.8709C25.4086 16.3465 26.4194 17.1795 27.1598 18.2701C27.2061 18.338 27.2398 18.4153 27.259 18.4975C27.2782 18.5797 27.2824 18.6653 27.2715 18.7493C27.2606 18.8334 27.2347 18.9142 27.1953 18.9873C27.156 19.0603 27.1039 19.1241 27.0421 19.175ZM21.7067 26.0915C21.7454 26.165 21.7705 26.2461 21.7807 26.3303C21.7909 26.4145 21.7858 26.5 21.7659 26.5821C21.7459 26.6641 21.7115 26.741 21.6645 26.8084C21.6175 26.8758 21.5588 26.9324 21.4919 26.9749C21.4027 27.0324 21.3011 27.0625 21.1977 27.0622C21.0944 27.0622 20.9929 27.0324 20.9033 26.9757C20.8138 26.9189 20.7395 26.8373 20.6878 26.739C20.1764 25.787 19.4479 24.998 18.5741 24.4499C17.7003 23.9018 16.7116 23.6135 15.7054 23.6135C14.6993 23.6135 13.7105 23.9018 12.8367 24.4499C11.963 24.998 11.2344 25.787 10.723 26.739C10.6862 26.8162 10.6356 26.8845 10.5742 26.9397C10.5128 26.9949 10.4418 27.0359 10.3656 27.0602C10.2894 27.0844 10.2095 27.0915 10.1307 27.081C10.052 27.0705 9.97594 27.0426 9.90724 26.999C9.83854 26.9554 9.77858 26.8969 9.73098 26.8272C9.68337 26.7574 9.6491 26.6778 9.63022 26.5931C9.61134 26.5085 9.60825 26.4205 9.62112 26.3344C9.634 26.2484 9.66259 26.1661 9.70516 26.0926C10.5065 24.5798 11.7613 23.4199 13.2549 22.811C12.439 22.229 11.8162 21.3728 11.4795 20.3701C11.1427 19.3675 11.11 18.2721 11.3863 17.2473C11.6625 16.2225 12.2329 15.3233 13.0123 14.6839C13.7918 14.0444 14.7385 13.6989 15.7113 13.6989C16.6841 13.6989 17.6308 14.0444 18.4103 14.6839C19.1897 15.3233 19.7601 16.2225 20.0363 17.2473C20.3126 18.2721 20.2799 19.3675 19.9431 20.3701C19.6064 21.3728 18.9836 22.229 18.1677 22.811C19.6572 23.422 20.9078 24.5813 21.7067 26.0915ZM15.7064 22.3208C16.3658 22.3208 17.0104 22.106 17.5587 21.7035C18.107 21.301 18.5343 20.729 18.7866 20.0597C19.039 19.3904 19.105 18.6539 18.9764 17.9433C18.8477 17.2328 18.5302 16.5801 18.0639 16.0679C17.5976 15.5556 17.0036 15.2067 16.3568 15.0654C15.7101 14.9241 15.0397 14.9966 14.4305 15.2738C13.8213 15.5511 13.3006 16.0206 12.9343 16.6229C12.5679 17.2253 12.3724 17.9335 12.3724 18.6579C12.3724 19.6294 12.7236 20.5611 13.3489 21.248C13.9741 21.9349 14.8222 22.3208 15.7064 22.3208ZM10.0189 16.0723C10.0189 15.9009 9.95696 15.7365 9.84662 15.6153C9.73628 15.494 9.58663 15.4259 9.43059 15.4259C8.95382 15.4258 8.48664 15.2787 8.0821 15.0015C7.67757 14.7243 7.35189 14.328 7.14206 13.8577C6.93222 13.3873 6.84663 12.8618 6.895 12.3407C6.94338 11.8196 7.12379 11.3238 7.41574 10.9097C7.70768 10.4956 8.09947 10.1797 8.54662 9.9979C8.99376 9.81613 9.47834 9.77574 9.94533 9.88133C10.4123 9.98692 10.843 10.2342 11.1885 10.5952C11.5339 10.9562 11.7804 11.4164 11.8997 11.9235C11.919 12.0057 11.9529 12.083 11.9994 12.1508C12.0459 12.2186 12.104 12.2757 12.1706 12.3188C12.2372 12.3619 12.3108 12.3902 12.3873 12.4021C12.4638 12.4139 12.5417 12.4091 12.6165 12.3879C12.6914 12.3667 12.7616 12.3294 12.8234 12.2784C12.8851 12.2273 12.9371 12.1634 12.9763 12.0903C13.0156 12.0171 13.0413 11.9362 13.0521 11.8522C13.0629 11.7681 13.0585 11.6825 13.0392 11.6003C12.8913 10.9684 12.6081 10.3845 12.2131 9.8972C11.8181 9.40992 11.3229 9.03343 10.7686 8.79909C10.2143 8.56475 9.6171 8.47935 9.0267 8.55003C8.4363 8.6207 7.86982 8.84539 7.37449 9.20537C6.87916 9.56535 6.46932 10.0502 6.17914 10.6195C5.88895 11.1888 5.72683 11.826 5.70627 12.4781C5.68572 13.1302 5.80733 13.7782 6.06098 14.3682C6.31463 14.9582 6.69296 15.473 7.16443 15.8698C6.00411 16.3458 4.99329 17.1791 4.25305 18.2701C4.20669 18.338 4.17296 18.4153 4.15378 18.4975C4.13461 18.5797 4.13036 18.6653 4.14129 18.7493C4.15222 18.8334 4.1781 18.9142 4.21747 18.9873C4.25683 19.0603 4.30891 19.1241 4.37072 19.175C4.43253 19.226 4.50287 19.263 4.57771 19.2841C4.65256 19.3052 4.73045 19.3098 4.80694 19.2978C4.88343 19.2858 4.95701 19.2574 5.0235 19.2141C5.08998 19.1709 5.14806 19.1137 5.19442 19.0458C5.68541 18.3206 6.32452 17.7323 7.0603 17.3281C7.79608 16.9239 8.60797 16.7152 9.43059 16.7187C9.58663 16.7187 9.73628 16.6506 9.84662 16.5294C9.95696 16.4082 10.0189 16.2438 10.0189 16.0723Z" fill="currentColor"/>
</svg>
