<svg width="36" height="36" viewBox="0 0 36 36" fill="none" xmlns="http://www.w3.org/2000/svg">
<rect width="36" height="36" rx="18" fill="#24292D"/>
<path d="M18 8C16.6868 8 15.3864 8.25866 14.1732 8.7612C12.9599 9.26375 11.8575 10.0003 10.9289 10.9289C9.05357 12.8043 8 15.3478 8 18C8 22.42 10.87 26.17 14.84 27.5C15.34 27.58 15.5 27.27 15.5 27V25.31C12.73 25.91 12.14 23.97 12.14 23.97C11.68 22.81 11.03 22.5 11.03 22.5C10.12 21.88 11.1 21.9 11.1 21.9C12.1 21.97 12.63 22.93 12.63 22.93C13.5 24.45 14.97 24 15.54 23.76C15.63 23.11 15.89 22.67 16.17 22.42C13.95 22.17 11.62 21.31 11.62 17.5C11.62 16.39 12 15.5 12.65 14.79C12.55 14.54 12.2 13.5 12.75 12.15C12.75 12.15 13.59 11.88 15.5 13.17C16.29 12.95 17.15 12.84 18 12.84C18.85 12.84 19.71 12.95 20.5 13.17C22.41 11.88 23.25 12.15 23.25 12.15C23.8 13.5 23.45 14.54 23.35 14.79C24 15.5 24.38 16.39 24.38 17.5C24.38 21.32 22.04 22.16 19.81 22.41C20.17 22.72 20.5 23.33 20.5 24.26V27C20.5 27.27 20.66 27.59 21.17 27.5C25.14 26.16 28 22.42 28 18C28 16.6868 27.7413 15.3864 27.2388 14.1732C26.7362 12.9599 25.9997 11.8575 25.0711 10.9289C24.1425 10.0003 23.0401 9.26375 21.8268 8.7612C20.6136 8.25866 19.3132 8 18 8Z" fill="white"/>
</svg>
