<svg width="36" height="36" viewBox="0 0 36 36" fill="none" xmlns="http://www.w3.org/2000/svg">
<g clip-path="url(#clip0_921_2571)">
<path d="M27.5625 0H8.4375C3.7776 0 0 3.7776 0 8.4375V27.5625C0 32.2224 3.7776 36 8.4375 36H27.5625C32.2224 36 36 32.2224 36 27.5625V8.4375C36 3.7776 32.2224 0 27.5625 0Z" fill="url(#paint0_radial_921_2571)"/>
<path d="M27.5625 0H8.4375C3.7776 0 0 3.7776 0 8.4375V27.5625C0 32.2224 3.7776 36 8.4375 36H27.5625C32.2224 36 36 32.2224 36 27.5625V8.4375C36 3.7776 32.2224 0 27.5625 0Z" fill="url(#paint1_radial_921_2571)"/>
<path d="M18.001 7C15.0136 7 14.6386 7.01309 13.4654 7.06644C12.2943 7.12012 11.4949 7.30547 10.7956 7.57749C10.072 7.85843 9.45828 8.2343 8.8469 8.84589C8.23497 9.45738 7.8591 10.0711 7.57728 10.7943C7.30448 11.4939 7.11891 12.2936 7.06622 13.4641C7.01375 14.6374 7 15.0125 7 18C7 20.9875 7.0132 21.3612 7.06644 22.5345C7.12034 23.7055 7.30569 24.5049 7.5775 25.2043C7.85866 25.9278 8.23453 26.5415 8.84613 27.1529C9.4574 27.7648 10.0711 28.1416 10.7941 28.4225C11.4941 28.6945 12.2935 28.8799 13.4644 28.9336C14.6377 28.9869 15.0124 29 17.9997 29C20.9874 29 21.3612 28.9869 22.5344 28.9336C23.7055 28.8799 24.5057 28.6945 25.2057 28.4225C25.9289 28.1416 26.5417 27.7648 27.1529 27.1529C27.7648 26.5415 28.1406 25.9278 28.4225 25.2046C28.6929 24.5049 28.8786 23.7053 28.9336 22.5347C28.9862 21.3615 29 20.9875 29 18C29 15.0125 28.9862 14.6377 28.9336 13.4643C28.8786 12.2933 28.6929 11.494 28.4225 10.7946C28.1406 10.0711 27.7648 9.45738 27.1529 8.84589C26.5411 8.23408 25.9291 7.85821 25.205 7.5776C24.5037 7.30547 23.7039 7.12001 22.5329 7.06644C21.3595 7.01309 20.9859 7 17.9976 7H18.001ZM17.0142 8.98091C17.0142 8.98167 17.0148 8.98229 17.0156 8.98229C17.3081 8.98185 17.6345 8.98229 18.001 8.98229C20.9381 8.98229 21.2861 8.99285 22.446 9.04554C23.5185 9.0946 24.1006 9.27379 24.4883 9.42438C25.0017 9.62369 25.3677 9.86206 25.7525 10.2472C26.1375 10.6322 26.3757 10.9988 26.5756 11.5122C26.7262 11.8994 26.9056 12.4815 26.9544 13.554C27.0071 14.7136 27.0186 15.0618 27.0186 17.9975C27.0186 20.9331 27.0071 21.2815 26.9544 22.441C26.9054 23.5135 26.7262 24.0956 26.5756 24.4829C26.3763 24.9963 26.1375 25.3618 25.7525 25.7466C25.3675 26.1316 25.0019 26.3698 24.4883 26.5692C24.101 26.7205 23.5185 26.8992 22.446 26.9483C21.2864 27.001 20.9381 27.0124 18.001 27.0124C15.0638 27.0124 14.7156 27.001 13.5561 26.9483C12.4836 26.8988 11.9015 26.7196 11.5134 26.569C11.0001 26.3696 10.6334 26.1313 10.2484 25.7463C9.86341 25.3613 9.62515 24.9956 9.42528 24.482C9.27469 24.0947 9.09528 23.5126 9.04644 22.4401C8.99375 21.2805 8.98319 20.9322 8.98319 17.9947C8.98319 15.0573 8.99375 14.7108 9.04644 13.5512C9.0955 12.4787 9.27469 11.8966 9.42528 11.5089C9.62471 10.9955 9.86341 10.6289 10.2485 10.2439C10.6335 9.85887 11.0001 9.6205 11.5135 9.42075C11.9013 9.2695 12.4836 9.09075 13.5561 9.04147C14.5706 8.99561 14.9639 8.98186 17.0128 8.97954C17.0135 8.97954 17.0142 8.98016 17.0142 8.98091ZM23.8728 10.8085C23.8728 10.8086 23.8727 10.8087 23.8726 10.8087C23.1439 10.8088 22.5528 11.3995 22.5528 12.1283C22.5528 12.857 23.144 13.4482 23.8728 13.4482C24.6015 13.4482 25.1928 12.857 25.1928 12.1283C25.1928 11.3996 24.6017 10.8084 23.873 10.8083C23.8729 10.8083 23.8728 10.8084 23.8728 10.8085ZM18.001 12.351C14.8814 12.351 12.352 14.8803 12.352 18C12.352 21.1197 14.8814 23.6478 18.001 23.6478C21.1207 23.6478 23.6492 21.1197 23.6492 18C23.6492 14.8804 21.1205 12.351 18.0008 12.351H18.001ZM18.001 14.3333C20.026 14.3333 21.6677 15.9748 21.6677 18C21.6677 20.025 20.026 21.6667 18.001 21.6667C15.9759 21.6667 14.3344 20.025 14.3344 18C14.3344 15.9748 15.9759 14.3333 18.001 14.3333Z" fill="white"/>
</g>
<defs>
<radialGradient id="paint0_radial_921_2571" cx="0" cy="0" r="1" gradientUnits="userSpaceOnUse" gradientTransform="translate(9.5625 38.7727) rotate(-90) scale(35.6787 33.184)">
<stop stop-color="#FFDD55"/>
<stop offset="0.1" stop-color="#FFDD55"/>
<stop offset="0.5" stop-color="#FF543E"/>
<stop offset="1" stop-color="#C837AB"/>
</radialGradient>
<radialGradient id="paint1_radial_921_2571" cx="0" cy="0" r="1" gradientUnits="userSpaceOnUse" gradientTransform="translate(-6.03014 2.59327) rotate(78.681) scale(15.9486 65.7405)">
<stop stop-color="#3771C8"/>
<stop offset="0.128" stop-color="#3771C8"/>
<stop offset="1" stop-color="#6600FF" stop-opacity="0"/>
</radialGradient>
<clipPath id="clip0_921_2571">
<rect width="36" height="36" rx="18" fill="white"/>
</clipPath>
</defs>
</svg>
