<svg width="36" height="36" viewBox="0 0 36 36" fill="none" xmlns="http://www.w3.org/2000/svg">
<rect width="36" height="36" rx="18" fill="#0D66C2"/>
<path d="M25 9C25.5304 9 26.0391 9.21071 26.4142 9.58579C26.7893 9.96086 27 10.4696 27 11V25C27 25.5304 26.7893 26.0391 26.4142 26.4142C26.0391 26.7893 25.5304 27 25 27H11C10.4696 27 9.96086 26.7893 9.58579 26.4142C9.21071 26.0391 9 25.5304 9 25V11C9 10.4696 9.21071 9.96086 9.58579 9.58579C9.96086 9.21071 10.4696 9 11 9H25ZM24.5 24.5V19.2C24.5 18.3354 24.1565 17.5062 23.5452 16.8948C22.9338 16.2835 22.1046 15.94 21.24 15.94C20.39 15.94 19.4 16.46 18.92 17.24V16.13H16.13V24.5H18.92V19.57C18.92 18.8 19.54 18.17 20.31 18.17C20.6813 18.17 21.0374 18.3175 21.2999 18.5801C21.5625 18.8426 21.71 19.1987 21.71 19.57V24.5H24.5ZM12.88 14.56C13.3256 14.56 13.7529 14.383 14.0679 14.0679C14.383 13.7529 14.56 13.3256 14.56 12.88C14.56 11.95 13.81 11.19 12.88 11.19C12.4318 11.19 12.0019 11.3681 11.685 11.685C11.3681 12.0019 11.19 12.4318 11.19 12.88C11.19 13.81 11.95 14.56 12.88 14.56ZM14.27 24.5V16.13H11.5V24.5H14.27Z" fill="white"/>
</svg>
