<svg width="36" height="36" viewBox="0 0 36 36" fill="none" xmlns="http://www.w3.org/2000/svg">
<g clip-path="url(#clip0_921_2584)">
<path d="M18 36C27.9411 36 36 27.9411 36 18C36 8.05887 27.9411 0 18 0C8.05887 0 0 8.05887 0 18C0 27.9411 8.05887 36 18 36Z" fill="#FF4500"/>
<path d="M29.9742 18.1716C29.9742 16.7125 28.7942 15.5536 27.3562 15.5536C26.6769 15.5526 26.0235 15.8141 25.5323 16.2833C23.7298 14.9956 21.2618 14.1589 18.5151 14.0516L19.7166 8.42923L23.6222 9.26595C23.6654 10.2531 24.4806 11.0472 25.4894 11.0472C26.5193 11.0472 27.3562 10.2105 27.3562 9.18003C27.3562 8.15009 26.5195 7.31323 25.4894 7.31323C24.7598 7.31323 24.1158 7.74242 23.8154 8.36483L19.4594 7.44204C19.3306 7.42039 19.2018 7.44205 19.1159 7.50645C19.0086 7.57086 18.9443 7.67801 18.9231 7.80683L17.5922 14.0728C14.8026 14.1589 12.2918 14.9956 10.4679 16.3048C9.97659 15.8356 9.32312 15.5742 8.6438 15.5752C7.18454 15.5752 6.02579 16.7552 6.02579 18.1932C6.02579 19.2661 6.66943 20.1672 7.57098 20.5753C7.52719 20.8377 7.50565 21.1033 7.50657 21.3693C7.50657 25.4032 12.2063 28.6868 18.0001 28.6868C23.7942 28.6868 28.4939 25.4249 28.4939 21.3693C28.4937 21.1033 28.4722 20.8378 28.4295 20.5753C29.3306 20.1672 29.9742 19.2444 29.9742 18.1716ZM11.9914 20.0384C11.9914 19.0084 12.8281 18.1716 13.8586 18.1716C14.8885 18.1716 15.7254 19.0083 15.7254 20.0384C15.7254 21.0685 14.8887 21.9056 13.8586 21.9056C12.8282 21.9267 11.9914 21.0685 11.9914 20.0384ZM22.4422 24.9956C21.1546 26.2833 18.7082 26.3692 18.0001 26.3692C17.2706 26.3692 14.8243 26.2616 13.5578 24.9956C13.365 24.8025 13.365 24.502 13.5578 24.3089C13.751 24.1161 14.0514 24.1161 14.2446 24.3089C15.0602 25.1245 16.777 25.4032 18.0001 25.4032C19.2234 25.4032 20.9614 25.1244 21.7554 24.3089C21.9486 24.1161 22.249 24.1161 22.4422 24.3089C22.6138 24.502 22.6138 24.8025 22.4422 24.9956ZM22.0987 21.9268C21.0686 21.9268 20.2319 21.0901 20.2319 20.06C20.2319 19.03 21.0686 18.1932 22.0987 18.1932C23.129 18.1932 23.9657 19.03 23.9657 20.06C23.9657 21.0683 23.129 21.9268 22.0987 21.9268Z" fill="white"/>
</g>
<defs>
<clipPath id="clip0_921_2584">
<rect width="36" height="36" fill="white"/>
</clipPath>
</defs>
</svg>
