<svg width="36" height="36" viewBox="0 0 36 36" fill="none" xmlns="http://www.w3.org/2000/svg">
<rect x="0.15" y="0.15" width="35.7" height="35.7" rx="17.85" fill="white" stroke="#DDDDDD" stroke-width="0.3"/>
<g clip-path="url(#clip0_957_79)">
<path d="M12.2586 20.6123C12.2586 21.7576 11.3245 22.6931 10.1791 22.6931C9.03375 22.6931 8.09843 21.7576 8.09843 20.6123C8.09843 19.467 9.0339 18.5316 10.1792 18.5316H12.2587L12.2586 20.6123ZM13.3069 20.6123C13.3069 19.467 14.2423 18.5316 15.3877 18.5316C16.533 18.5316 17.4684 19.4669 17.4684 20.6123V25.8209C17.4684 26.9662 16.5331 27.9017 15.3877 27.9017C14.2423 27.9017 13.3069 26.9662 13.3069 25.8209V20.6123Z" fill="#DE1C59"/>
<path d="M15.3877 12.2586C14.2423 12.2586 13.3069 11.3245 13.3069 10.1791C13.3069 9.03376 14.2423 8.09845 15.3877 8.09845C16.533 8.09845 17.4684 9.03392 17.4684 10.1792V12.2588L15.3877 12.2586ZM15.3877 13.3069C16.533 13.3069 17.4684 14.2424 17.4684 15.3877C17.4684 16.533 16.5331 17.4684 15.3877 17.4684H10.1791C9.03375 17.4684 8.09843 16.5331 8.09843 15.3877C8.09843 14.2424 9.0339 13.3069 10.1792 13.3069H15.3877Z" fill="#35C5F0"/>
<path d="M23.7414 15.3877C23.7414 14.2424 24.6755 13.3069 25.8209 13.3069C26.9663 13.3069 27.9017 14.2424 27.9017 15.3877C27.9017 16.533 26.9663 17.4684 25.8209 17.4684H23.7414V15.3877ZM22.6931 15.3877C22.6931 16.533 21.7577 17.4684 20.6123 17.4684C19.467 17.4684 18.5316 16.5331 18.5316 15.3877V10.1791C18.5316 9.03376 19.4669 8.09845 20.6123 8.09845C21.7577 8.09845 22.6931 9.03392 22.6931 10.1792V15.3877Z" fill="#2EB57D"/>
<path d="M20.6123 23.7414C21.7577 23.7414 22.6931 24.6755 22.6931 25.8209C22.6931 26.9662 21.7577 27.9017 20.6123 27.9017C19.467 27.9017 18.5316 26.9662 18.5316 25.8209V23.7414H20.6123ZM20.6123 22.6931C19.467 22.6931 18.5316 21.7576 18.5316 20.6123C18.5316 19.467 19.4669 18.5316 20.6123 18.5316H25.8209C26.9663 18.5316 27.9017 19.4669 27.9017 20.6123C27.9017 21.7576 26.9663 22.6931 25.8209 22.6931H20.6123Z" fill="#EBB02E"/>
</g>
<defs>
<clipPath id="clip0_957_79">
<rect width="20" height="20" fill="white" transform="translate(8 8)"/>
</clipPath>
</defs>
</svg>
